<svg width="24" height="24" viewBox="0 0 24 24" fill="none" xmlns="http://www.w3.org/2000/svg">
<g clip-path="url(#clip0_110_210)">
<path d="M20 17.5C20.8284 17.5 21.5 18.1716 21.5 19C21.5 19.7797 20.9051 20.4204 20.1445 20.4931L20 20.5H4C3.17157 20.5 2.5 19.8284 2.5 19C2.5 18.2203 3.09489 17.5796 3.85554 17.5069L4 17.5H20ZM20 10.5C20.8284 10.5 21.5 11.1716 21.5 12C21.5 12.8284 20.8284 13.5 20 13.5H4C3.17157 13.5 2.5 12.8284 2.5 12C2.5 11.1716 3.17157 10.5 4 10.5H20ZM20 3.5C20.8284 3.5 21.5 4.17157 21.5 5C21.5 5.82843 20.8284 6.5 20 6.5H4C3.17157 6.5 2.5 5.82843 2.5 5C2.5 4.17157 3.17157 3.5 4 3.5H20Z" fill="white"/>
</g>
<defs>
<clipPath id="clip0_110_210">
<rect width="24" height="24" fill="white"/>
</clipPath>
</defs>
</svg>
