<svg width="43" height="43" viewBox="0 0 43 43" fill="none" xmlns="http://www.w3.org/2000/svg">
<path d="M16.989 2.40796V0.498047H12.4346V6.08087H16.989V4.17096H14.3445V2.40796H16.989Z" fill="black"/>
<path d="M23.4533 0.498047H18.8989V2.45857L20.7993 4.17096H18.8989V6.08087H23.4533V4.2215L21.7256 2.40796H23.4533V0.498047Z" fill="black"/>
<path d="M25.5101 0.498047H30.0645V2.40796H28.2633L30.0645 4.2215V6.08087H25.5101V4.17096H27.3371L25.5101 2.45857V0.498047Z" fill="black"/>
<path fill-rule="evenodd" clip-rule="evenodd" d="M9.23164 38.6203L6.55762 8.629H35.9409L33.264 38.6154L21.2315 41.9515L9.23164 38.6203Z" fill="#0071BC"/>
<path fill-rule="evenodd" clip-rule="evenodd" d="M21.2744 39.3999L30.9852 36.7284L33.2604 11.1266H21.2744V39.3999Z" fill="#29ABE2"/>
<path fill-rule="evenodd" clip-rule="evenodd" d="M12.6787 22.1453L13.0008 25.8182L21.2742 22.1453V18.4664L12.6787 22.1453Z" fill="#B3B3B3"/>
<path fill-rule="evenodd" clip-rule="evenodd" d="M30.4374 14.5394L21.2744 18.4664V22.1452L30.1215 18.2123L30.4374 14.5394Z" fill="#E6E6E6"/>
<path fill-rule="evenodd" clip-rule="evenodd" d="M21.2738 31.7554L21.2454 31.7597L17.1424 30.6578L16.8743 27.7281H13.1816L13.697 33.4998L21.2446 35.5896L21.2738 35.5827V31.7554Z" fill="#E6E6E6"/>
<path fill-rule="evenodd" clip-rule="evenodd" d="M21.2744 22.1453V25.8182H25.7665L25.3583 30.6203L21.2744 31.7586V35.5855L28.797 33.4957L29.7876 22.1453H21.2744Z" fill="white"/>
<path fill-rule="evenodd" clip-rule="evenodd" d="M21.2742 22.1453H12.6787L13.0008 25.8182H21.2742V22.1453Z" fill="#E6E6E6"/>
<path fill-rule="evenodd" clip-rule="evenodd" d="M21.2739 18.2123V14.5394H21.2366H12.0254L12.3513 18.2123H21.2739Z" fill="#E6E6E6"/>
<path fill-rule="evenodd" clip-rule="evenodd" d="M21.2744 14.5394V18.1662V18.2123H30.1215L30.4374 14.5394H21.2744Z" fill="white"/>
</svg>
