<svg width="25" height="24" viewBox="0 0 25 24" fill="none" xmlns="http://www.w3.org/2000/svg">
<path d="M15.4322 4C15.6909 4 16.0162 4.06833 16.2774 4.13172C17.1871 4.35245 18.266 4.62534 19.0322 5.19999C19.7452 5.73471 20.2991 6.66836 20.7266 7.61613C21.6173 9.59078 22.2358 12.2238 22.45 14.2256C22.5518 15.1766 22.5774 16.1321 22.3938 16.7747C22.3033 17.0912 22.1087 17.3288 21.9715 17.4743C21.5536 17.9175 21.0157 18.2487 20.4842 18.55L20.2197 18.6986C20.0476 18.7947 19.8712 18.8901 19.6951 18.9831L19.1727 19.2532L18.4562 19.6105L17.8794 19.8944C17.3855 20.1414 16.7848 19.9412 16.5378 19.4472C16.3429 19.0574 16.4265 18.6011 16.7132 18.3046L16.2788 17.4359C15.1054 17.8001 13.798 17.9999 12.4289 17.9999C11.0598 17.9999 9.75232 17.8001 8.57891 17.4359L8.14574 18.3023C8.43429 18.5987 8.51887 19.0563 8.32343 19.4472C8.07644 19.9412 7.47577 20.1414 6.98179 19.8944L6.43815 19.6247C5.83409 19.326 5.2302 19.0275 4.64148 18.6986C4.02811 18.356 3.3772 17.9914 2.88975 17.4743C2.75257 17.3288 2.5579 17.0912 2.46747 16.7747C2.28389 16.1321 2.30947 15.1766 2.41123 14.2256C2.62541 12.2238 3.24392 9.59078 4.13463 7.61613C4.56214 6.66836 5.11603 5.73471 5.82902 5.19999C6.59525 4.62534 7.67416 4.35245 8.58381 4.13172C8.84503 4.06833 9.17032 4 9.42899 4C9.98127 4 10.429 4.44772 10.429 5C10.429 5.05003 10.4253 5.09921 10.4182 5.14727C11.0656 5.05075 11.7389 5 12.4291 5C13.1204 5 13.7947 5.05092 14.4431 5.14776C14.4359 5.09954 14.4322 5.0502 14.4322 5C14.4322 4.44772 14.88 4 15.4322 4ZM16.7864 6.36276C16.6362 6.31506 16.5995 6.33632 16.5466 6.42574L16.4836 6.53785C16.1441 7.12398 15.4725 7.38999 14.8487 7.25419C14.0956 7.09025 13.2812 7.00007 12.429 7.00007C11.5767 7.00007 10.7623 7.09025 10.0092 7.25419C9.38536 7.38999 8.7137 7.12398 8.37429 6.53785L8.31183 6.42657C8.25945 6.33757 8.22304 6.31563 8.07424 6.36289C7.7183 6.47596 7.33607 6.59738 7.02941 6.79976C6.74238 7.01503 6.35824 7.55042 5.95763 8.43856C5.19201 10.1359 4.59182 12.6434 4.39977 14.4384C4.35918 14.8178 4.33895 15.1426 4.33354 15.4106L4.33382 15.7048C4.33827 15.8827 4.3508 16.0236 4.36857 16.1265C4.62268 16.3747 4.93687 16.5703 5.25181 16.7491L5.93438 17.1255L6.38027 17.3609L6.74433 16.6328C6.42975 16.3379 6.33167 15.8606 6.53468 15.4554C6.78207 14.9616 7.38291 14.7619 7.87669 15.0093C9.09268 15.6185 10.6753 16 12.4288 16C14.1823 16 15.7649 15.6185 16.9809 15.0093C17.4746 14.7619 18.0755 14.9616 18.3229 15.4554C18.5074 15.8238 18.4431 16.2517 18.1935 16.548L18.1132 16.6328L18.478 17.3624C18.7758 17.2089 19.075 17.0463 19.3746 16.8803C19.7641 16.6644 20.1748 16.4368 20.4924 16.1265C20.5101 16.0236 20.5227 15.8827 20.5272 15.7048L20.5275 15.4106C20.5221 15.1426 20.5018 14.8178 20.4613 14.4384C20.2692 12.6434 19.669 10.1359 18.9034 8.43856C18.5028 7.55042 18.1192 7.01534 17.8321 6.80008C17.5252 6.59748 17.1426 6.47595 16.7864 6.36276ZM9.17895 10.5C10.1455 10.5 10.929 11.2835 10.929 12.25C10.929 13.2165 10.1455 14 9.17895 14C8.21245 14 7.42895 13.2165 7.42895 12.25C7.42895 11.2835 8.21245 10.5 9.17895 10.5ZM15.679 10.5C16.6455 10.5 17.429 11.2835 17.429 12.25C17.429 13.2165 16.6455 14 15.679 14C14.7125 14 13.929 13.2165 13.929 12.25C13.929 11.2835 14.7125 10.5 15.679 10.5Z" fill="white"/>
</svg>
