<svg width="43" height="43" viewBox="0 0 43 43" fill="none" xmlns="http://www.w3.org/2000/svg">
<path d="M14.222 42.5C18.132 42.5 21.3053 39.3266 21.3053 35.4166V28.3333H14.222C10.312 28.3333 7.13867 31.5066 7.13867 35.4166C7.13867 39.3266 10.312 42.5 14.222 42.5Z" fill="#0ACF83"/>
<path d="M7.13867 21.25C7.13867 17.34 10.312 14.1667 14.222 14.1667H21.3053V28.3334H14.222C10.312 28.3334 7.13867 25.16 7.13867 21.25Z" fill="#A259FF"/>
<path d="M7.13867 7.08333C7.13867 3.17333 10.312 0 14.222 0H21.3053V14.1667H14.222C10.312 14.1667 7.13867 10.9933 7.13867 7.08333Z" fill="#F24E1E"/>
<path d="M21.3057 0H28.389C32.299 0 35.4723 3.17333 35.4723 7.08333C35.4723 10.9933 32.299 14.1667 28.389 14.1667H21.3057V0Z" fill="#FF7262"/>
<path d="M35.4723 21.25C35.4723 25.16 32.299 28.3334 28.389 28.3334C24.479 28.3334 21.3057 25.16 21.3057 21.25C21.3057 17.34 24.479 14.1667 28.389 14.1667C32.299 14.1667 35.4723 17.34 35.4723 21.25Z" fill="#1ABCFE"/>
</svg>
