<svg width="43" height="43" viewBox="0 0 43 43" fill="none" xmlns="http://www.w3.org/2000/svg">
<g clip-path="url(#clip0_706_391)">
<path d="M5.81055 34.3046L6.06783 33.9443L18.2388 10.8506L18.2645 10.6061L12.8993 0.528346C12.4498 -0.315847 11.1843 -0.102406 11.0368 0.842602L5.81055 34.3046Z" fill="#FFC24A"/>
<path d="M5.9624 34.0299L6.15703 33.6504L18.2004 10.7985L12.8487 0.679813C12.4039 -0.155534 11.2744 0.057413 11.1284 0.992519L5.9624 34.0299Z" fill="#FFA712"/>
<path d="M22.1759 18.2289L26.1706 14.1376L22.1747 6.50935C21.7954 5.78727 20.7362 5.78519 20.3609 6.50935L18.2261 10.5809V10.9277L22.1759 18.2289Z" fill="#F4BD62"/>
<path d="M22.1046 18.0584L25.9882 14.081L22.1046 6.68578C21.7358 5.98379 20.8399 5.91024 20.475 6.61426L18.3288 10.7489L18.2646 10.9603L22.1046 18.0584Z" fill="#FFA50E"/>
<path d="M5.81055 34.3046L5.92717 34.1873L6.3509 34.0151L21.9248 18.4991L22.1221 17.962L18.237 10.5587L5.81055 34.3046Z" fill="#F6820C"/>
<path d="M22.6746 42.1296L36.7692 34.2689L32.7443 9.48041C32.6184 8.70485 31.6669 8.39823 31.1118 8.95434L5.81055 34.3046L19.8244 42.1289C20.71 42.6235 21.7887 42.6237 22.6746 42.1296Z" fill="#FDE068"/>
<path d="M36.6429 34.203L32.6485 9.60267C32.5236 8.83299 31.7323 8.5145 31.1814 9.06638L5.9668 34.2564L19.8267 42.0034C20.7056 42.4941 21.7761 42.4943 22.6552 42.004L36.6429 34.203Z" fill="#FCCA3F"/>
<path d="M22.6746 41.8981C21.7887 42.3921 20.71 42.3919 19.8244 41.8974L5.92342 34.1854L5.81055 34.3046L19.8244 42.1289C20.71 42.6234 21.7887 42.6237 22.6746 42.1296L36.7692 34.2689L36.7347 34.0565L22.6746 41.8981Z" fill="#EEAB37"/>
</g>
<defs>
<clipPath id="clip0_706_391">
<rect width="42.5" height="42.5" fill="white"/>
</clipPath>
</defs>
</svg>
