<svg width="43" height="43" viewBox="0 0 43 43" fill="none" xmlns="http://www.w3.org/2000/svg">
<path d="M21.75 0C10.014 0 0.5 9.51392 0.5 21.25C0.5 32.9861 10.014 42.5 21.75 42.5C33.4861 42.5 43 32.9861 43 21.25C43 9.51392 33.4861 0 21.75 0ZM5.06609 21.4715L21.5284 37.9339C12.4887 37.8161 5.18388 30.5112 5.06609 21.4715ZM25.4847 37.5168L5.48324 17.5153C7.17928 10.0976 13.8182 4.5633 21.75 4.5633C27.2945 4.5633 32.2065 7.26818 35.2409 11.4296L32.9305 13.4682C30.4691 9.93832 26.3796 7.6282 21.75 7.6282C15.8556 7.6282 10.8361 11.3723 8.93877 16.6118L26.3882 34.0613C30.6258 32.5267 33.8849 28.9496 34.9764 24.5192H27.7436V21.25H35.3718V21.25H38.4367V21.25C38.4367 29.1818 32.9024 35.8207 25.4847 37.5168Z" fill="#744C9E"/>
</svg>
