<svg width="43" height="43" viewBox="0 0 43 43" fill="none" xmlns="http://www.w3.org/2000/svg">
<g clip-path="url(#clip0_150_224)">
<path fill-rule="evenodd" clip-rule="evenodd" d="M41.5607 19.4102L23.51 1.36082C22.4712 0.321133 20.7851 0.321133 19.745 1.36082L15.9967 5.10905L20.7515 9.86384C21.8565 9.49052 23.1235 9.74092 24.0044 10.6218C24.8894 11.5082 25.138 12.786 24.7556 13.8947L29.338 18.4771C30.4467 18.0952 31.7259 18.3424 32.6113 19.2292C33.8488 20.4662 33.8488 22.4712 32.6113 23.7091C31.3734 24.947 29.3684 24.947 28.13 23.7091C27.1992 22.7774 26.9692 21.4102 27.4405 20.2634L23.167 15.9899L23.1666 27.236C23.4682 27.3857 23.7531 27.5848 24.0044 27.8352C25.2419 29.0722 25.2419 31.0772 24.0044 32.316C22.7665 33.5535 20.7606 33.5535 19.5245 32.316C18.287 31.0772 18.287 29.0722 19.5245 27.8352C19.8302 27.5299 20.1841 27.299 20.5615 27.1439V15.7931C20.1841 15.6388 19.8307 15.4093 19.5245 15.1017C18.5869 14.1655 18.3614 12.7897 18.8418 11.6384L14.1551 6.95073L1.77815 19.3267C0.738012 20.3673 0.738012 22.0534 1.77815 23.0931L19.8289 41.1429C20.8681 42.1826 22.5537 42.1826 23.5943 41.1429L41.5607 23.177C42.6004 22.1369 42.6004 20.4499 41.5607 19.4102Z" fill="#DE4C36"/>
</g>
<defs>
<clipPath id="clip0_150_224">
<rect width="41.5039" height="41.3424" fill="white" transform="translate(0.998047 0.581055)"/>
</clipPath>
</defs>
</svg>
