<svg width="43" height="43" viewBox="0 0 43 43" fill="none" xmlns="http://www.w3.org/2000/svg">
<path fill-rule="evenodd" clip-rule="evenodd" d="M21.2502 0.996094C9.79059 0.996094 0.498047 10.2869 0.498047 21.7482C0.498047 30.9171 6.44416 38.6958 14.6896 41.4399C15.7267 41.632 16.1075 40.9897 16.1075 40.4416C16.1075 39.9467 16.0883 38.312 16.0793 36.5779C10.3061 37.8333 9.08784 34.1295 9.08784 34.1295C8.14384 31.7308 6.78368 31.093 6.78368 31.093C4.90085 29.805 6.92561 29.8315 6.92561 29.8315C9.00948 29.9779 10.1067 31.97 10.1067 31.97C11.9576 35.1425 14.9614 34.2253 16.1456 33.6951C16.3319 32.3538 16.8697 31.4384 17.4632 30.9201C12.8539 30.3954 8.00844 28.616 8.00844 20.6644C8.00844 18.3987 8.8191 16.5475 10.1466 15.0942C9.93114 14.5715 9.22083 12.4608 10.3476 9.60238C10.3476 9.60238 12.0903 9.04464 16.056 11.7295C17.7113 11.2697 19.4866 11.0392 21.2502 11.0313C23.0138 11.0392 24.7904 11.2697 26.4489 11.7295C30.4097 9.04464 32.15 9.60238 32.15 9.60238C33.2795 12.4608 32.5689 14.5715 32.3534 15.0942C33.684 16.5475 34.4892 18.3987 34.4892 20.6644C34.4892 28.6349 29.6345 30.3899 25.0134 30.9036C25.7578 31.5476 26.421 32.8105 26.421 34.7466C26.421 37.5233 26.397 39.758 26.397 40.4416C26.397 40.9938 26.7705 41.6409 27.8224 41.4371C36.0634 38.69 42.002 30.914 42.002 21.7482C42.002 10.2869 32.7108 0.996094 21.2502 0.996094ZM8.27039 30.5579C8.22469 30.661 8.06249 30.692 7.91472 30.6212C7.7642 30.5535 7.67966 30.4129 7.72846 30.3095C7.77314 30.2033 7.93568 30.1737 8.08585 30.2449C8.23672 30.3126 8.32263 30.4545 8.27039 30.5579ZM9.29117 31.4688C9.1922 31.5605 8.99872 31.5179 8.86745 31.3729C8.73171 31.2282 8.70628 31.0347 8.80663 30.9416C8.90869 30.8498 9.09632 30.8928 9.2324 31.0375C9.36814 31.1839 9.3946 31.376 9.29117 31.4688ZM9.99146 32.6341C9.86431 32.7224 9.6564 32.6396 9.52788 32.4551C9.40073 32.2705 9.40073 32.0492 9.53063 31.9606C9.65949 31.8719 9.86431 31.9516 9.99455 32.1348C10.1214 32.3224 10.1214 32.5437 9.99146 32.6341ZM11.1758 33.9838C11.062 34.1092 10.8198 34.0755 10.6425 33.9044C10.461 33.737 10.4105 33.4996 10.5246 33.3742C10.6397 33.2484 10.8834 33.2838 11.062 33.4535C11.2421 33.6205 11.2971 33.8597 11.1758 33.9838ZM12.7064 34.4394C12.6563 34.602 12.4229 34.6758 12.1879 34.6068C11.9532 34.5356 11.7996 34.3453 11.847 34.181C11.8958 34.0174 12.1301 33.9404 12.3669 34.0143C12.6013 34.0851 12.7552 34.2741 12.7064 34.4394ZM14.4484 34.6327C14.4542 34.8038 14.2549 34.9457 14.0082 34.9488C13.7601 34.9543 13.5594 34.8158 13.5566 34.6475C13.5566 34.4746 13.7515 34.334 13.9996 34.3299C14.2463 34.3251 14.4484 34.4626 14.4484 34.6327ZM16.1596 34.5671C16.1892 34.7341 16.0177 34.9056 15.7727 34.9513C15.5318 34.9953 15.3088 34.8922 15.2782 34.7265C15.2483 34.5554 15.4229 34.3839 15.6634 34.3396C15.9088 34.297 16.1284 34.3973 16.1596 34.5671Z" fill="#161614"/>
</svg>
