<svg width="25" height="24" viewBox="0 0 25 24" fill="none" xmlns="http://www.w3.org/2000/svg">
<path d="M6.74403 6.17593C6.49424 5.53805 6.50405 4.80912 6.61541 4.14165C7.37338 4.37431 8.10478 4.73057 8.73553 5.21262C9.01427 5.42564 9.38157 5.49548 9.72387 5.39176C10.5535 5.14038 11.4667 5.00009 12.429 5.00009C13.3904 5.00009 14.3027 5.14011 15.1317 5.39104C15.4739 5.49461 15.8409 5.4248 16.1196 5.21194C16.7501 4.73025 17.4812 4.3742 18.2388 4.14165C18.3501 4.80848 18.3599 5.53653 18.111 6.17399C17.961 6.55796 18.0362 7.0001 18.3188 7.3137C19.0428 8.11697 19.429 9.04078 19.429 10.0001C19.429 12.1142 17.4596 14.187 14.2952 14.8182C13.5028 14.9763 13.1936 15.9726 13.8001 16.544C14.1886 16.91 14.429 17.4261 14.429 18.0001V21.0001C14.429 21.5523 14.8767 22.0001 15.429 22.0001C15.9813 22.0001 16.429 21.5523 16.429 21.0001V18.0001C16.429 17.4303 16.3095 16.888 16.0947 16.3972C19.1121 15.3498 21.429 12.9925 21.429 10.0001C21.429 8.65252 20.9446 7.41485 20.1418 6.37805C20.3516 5.55844 20.333 4.73179 20.2532 4.0976C20.1818 3.53006 20.0825 2.78567 19.6822 2.34212C19.0876 1.68342 18.1022 2.071 17.4022 2.31049C16.7838 2.52076 16.0188 2.8559 15.2777 3.3555C14.3802 3.12437 13.422 3.00009 12.429 3.00009C11.435 3.00009 10.4758 3.12462 9.57755 3.35619C8.83636 2.85634 8.07113 2.52104 7.4525 2.31067C6.75258 2.07115 5.76651 1.68339 5.17198 2.34224C4.76439 2.79391 4.67851 3.47918 4.60564 4.06065L4.60082 4.09905C4.52108 4.73387 4.5027 5.56142 4.71339 6.38167C3.91219 7.41774 3.42896 8.65411 3.42896 10.0001C3.42896 12.9925 5.74586 15.3498 8.7633 16.3972C8.5509 16.8823 8.43173 17.4177 8.429 17.9803L8.26126 18.0138C7.54442 18.1126 7.08522 18.0246 6.77266 17.892C6.01259 17.5696 5.62121 16.7586 5.14215 16.1387C4.8445 15.7535 4.41099 15.2733 3.74521 15.0514C3.22127 14.8768 2.65495 15.1599 2.4803 15.6839C2.30566 16.2078 2.58882 16.7741 3.11276 16.9488C3.67145 17.135 4.05707 18.0909 4.41077 18.5153C4.78365 18.9628 5.27977 19.4312 5.99156 19.7332C6.67308 20.0223 7.47366 20.1258 8.42896 20.0088V21.0001C8.42896 21.5523 8.87668 22.0001 9.42896 22.0001C9.98124 22.0001 10.429 21.5523 10.429 21.0001V18.0001C10.429 17.4261 10.6694 16.91 11.0579 16.544C11.6645 15.9725 11.355 14.9763 10.5628 14.8182C7.39837 14.187 5.42896 12.1142 5.42896 10.0001C5.42896 9.04171 5.81445 8.1188 6.53699 7.31609C6.81953 7.00221 6.89437 6.55986 6.74403 6.17593Z" fill="white"/>
</svg>
