<svg width="43" height="43" viewBox="0 0 43 43" fill="none" xmlns="http://www.w3.org/2000/svg">
<g clip-path="url(#clip0_150_222)">
<path fill-rule="evenodd" clip-rule="evenodd" d="M25.3677 4.87042L34.1066 9.91602C34.3527 9.65536 34.6401 9.42522 34.9662 9.23583C36.7786 8.19395 39.0903 8.81256 40.143 10.625C41.1849 12.4374 40.5663 14.7491 38.7539 15.8018C38.4303 15.9878 38.0905 16.1209 37.7445 16.2037V26.2989C38.0867 26.3819 38.4228 26.5141 38.743 26.6982C40.5663 27.7509 41.1849 30.0626 40.1322 31.875C39.0903 33.6874 36.7678 34.3061 34.9554 33.2642C34.5945 33.0567 34.281 32.7986 34.0185 32.5037L25.3328 37.5186C25.457 37.8937 25.5242 38.2951 25.5242 38.7123C25.5242 40.7961 23.8311 42.5 21.7365 42.5C19.6419 42.5 17.9488 40.8069 17.9488 38.7123C17.9488 38.34 18.0023 37.9804 18.1021 37.6407L9.36543 32.5964C9.12198 32.852 8.83853 33.0778 8.51766 33.2642C6.69437 34.3061 4.3827 33.6874 3.34082 31.875C2.29895 30.0626 2.91756 27.7509 4.73 26.6982C5.05045 26.5139 5.38651 26.3816 5.72846 26.2987V16.2037C5.38256 16.1209 5.04272 15.9878 4.71914 15.8018C2.90671 14.76 2.28809 12.4374 3.32997 10.625C4.37185 8.81256 6.69437 8.19395 8.50681 9.23583C8.83111 9.42419 9.11718 9.65286 9.36237 9.91177L18.1037 4.86481C18.0029 4.5235 17.9488 4.162 17.9488 3.78767C17.9488 1.69305 19.6419 0 21.7365 0C23.8311 0 25.5242 1.69305 25.5242 3.78767C25.5242 4.16405 25.4695 4.52747 25.3677 4.87042ZM24.4572 6.42499L33.2169 11.4826C32.9462 12.4336 33.0455 13.4881 33.577 14.4127C34.1103 15.3403 34.9789 15.9551 35.943 16.1948V26.3025C35.8938 26.3146 35.845 26.3276 35.7963 26.3416L24.3555 6.52601C24.39 6.49298 24.4239 6.4593 24.4572 6.42499ZM19.12 6.5283L7.67926 26.3436C7.6298 26.3292 7.58005 26.3159 7.53005 26.3035V16.1948C8.4941 15.9551 9.36276 15.3403 9.89598 14.4127C10.4285 13.4863 10.5272 12.4294 10.2545 11.477L19.0118 6.42077C19.0471 6.45734 19.0832 6.49319 19.12 6.5283ZM22.7948 7.42599L34.2329 27.2368C33.9769 27.4809 33.7513 27.7652 33.5662 28.0873C33.3821 28.4075 33.2499 28.7436 33.1669 29.0858H10.3063C10.2234 28.7439 10.091 28.4078 9.90684 28.0873C9.72095 27.7673 9.49581 27.4845 9.2411 27.2415L20.6814 7.42692C21.0162 7.52356 21.3702 7.57533 21.7365 7.57533C22.104 7.57533 22.4591 7.52323 22.7948 7.42599ZM24.5376 36.1606L33.2405 31.1358C33.2144 31.0538 33.1911 30.971 33.1706 30.8874H10.3015C10.2894 30.9365 10.2763 30.9853 10.2622 31.0339L19.0078 36.0834C19.6964 35.3687 20.6638 34.9247 21.7365 34.9247C22.8474 34.9247 23.8453 35.4009 24.5376 36.1606Z" fill="#E535AB"/>
</g>
<defs>
<clipPath id="clip0_150_222">
<rect width="42.5" height="42.5" fill="white" transform="translate(0.5)"/>
</clipPath>
</defs>
</svg>
