<svg width="43" height="43" viewBox="0 0 43 43" fill="none" xmlns="http://www.w3.org/2000/svg">
<g clip-path="url(#clip0_150_227)">
<g clip-path="url(#clip1_150_227)">
<path fill-rule="evenodd" clip-rule="evenodd" d="M8.7072 14.2022C8.80863 15.1133 6.88477 17.1383 6.88477 18.1508C6.88477 19.1634 7.28926 20.9859 9.51705 21.8973C11.7448 22.8085 12.0483 25.1371 12.0483 26.555C12.0483 27.9724 11.2384 30.7059 11.2384 30.7059C11.2384 30.7059 10.7324 37.4896 13.4658 38.7045C16.1993 39.9194 15.5921 39.9194 16.1993 39.9194C16.8067 39.9194 21.2619 41.7423 23.8942 41.0335C26.5267 40.3247 27.235 39.5149 27.235 39.5149C27.235 39.5149 29.8678 39.7171 30.6776 37.3881C31.4879 35.0597 31.9939 30.1998 31.6901 27.9722C31.3863 25.7444 30.9814 22.8087 32.8037 21.796C34.6266 20.7834 36.5501 19.5688 36.2463 18.5561C35.9425 17.5435 34.323 16.1259 34.323 16.1259C34.323 16.1259 33.9179 13.5949 34.2214 12.9873C34.525 12.3799 36.3476 10.8607 35.3351 9.7472C34.3231 8.63356 32.5 8.63356 32.5 8.63356L30.1716 8.8358C30.1716 8.8358 26.2229 5.29224 21.0591 5.49473C15.8956 5.69723 12.6554 8.8358 12.6554 8.8358C12.6554 8.8358 10.9344 8.22832 9.41549 8.8358C7.89661 9.44353 7.5938 8.83568 7.89735 10.5571C7.89735 10.5571 8.60614 13.2908 8.7072 14.2022Z" fill="#FBA919"/>
<path fill-rule="evenodd" clip-rule="evenodd" d="M17.1491 25.632C17.1491 25.632 15.144 28.6978 13.6733 30.8734C13.4458 31.21 15.144 31.2333 15.144 31.2333L17.1491 25.632Z" fill="#E78724"/>
<path fill-rule="evenodd" clip-rule="evenodd" d="M18.1036 19.2757C18.1036 19.2757 17.4992 20.7836 17.1681 21.583C16.8087 22.452 15.4385 22.8843 15.4385 22.8843C15.4385 22.8843 16.1487 22.1393 16.1487 20.252C16.1487 19.4602 17.171 19.1454 17.171 19.1454L18.1036 19.2757Z" fill="#E78724"/>
<path fill-rule="evenodd" clip-rule="evenodd" d="M17.4929 20.1283C17.4929 20.1283 16.2545 21.6024 13.9553 20.7768C11.6556 19.9515 11.4199 17.0031 11.4199 16.1776C11.4199 15.352 15.7832 17.0031 16.373 17.3569C16.9628 17.7108 18.0824 19.1258 17.4929 20.1283Z" fill="#E78724"/>
<path fill-rule="evenodd" clip-rule="evenodd" d="M8.80762 4.37725C8.80762 4.37725 10.9301 3.96424 12.3451 5.08468C13.7607 6.20488 14.1729 7.08959 14.1729 7.08959L11.7878 8.98023C11.7878 8.98023 10.6354 8.44589 10.2815 6.91267C9.92781 5.37959 10.1637 4.67216 8.80762 4.37725Z" fill="#E78724"/>
<path fill-rule="evenodd" clip-rule="evenodd" d="M16.8737 15.8705C15.9599 14.5733 14.4538 14.0074 13.2513 13.9137C11.201 13.7533 10.2275 14.4782 10.2275 14.4782C10.2275 14.4782 13.5855 14.6204 14.5534 15.8915C16.3552 18.2574 18.9838 18.4497 19.4041 17.93C18.918 17.9543 18.3833 17.7135 17.8111 17.1723C17.4535 16.8338 17.1637 16.2823 16.8737 15.8705Z" fill="#E78724"/>
<path fill-rule="evenodd" clip-rule="evenodd" d="M11.2054 20.4575C11.2054 20.4575 7.47959 19.1767 8.18776 17.8797C8.89518 16.5823 8.33206 15.8755 8.33206 15.8755C8.33206 15.8755 6.25166 17.4285 6.7818 19.0793C7.10759 20.0926 7.65416 20.8262 10.6555 22.2328C12.095 24.9067 10.9527 29.7197 11.0212 29.7423C11.1352 29.7803 13.0424 28.7997 12.9122 24.2968C12.8725 22.9141 12.7619 21.0264 11.2054 20.4575Z" fill="#E78724"/>
<path fill-rule="evenodd" clip-rule="evenodd" d="M16.0872 6.68448C14.525 7.47814 12.3848 8.58339 12.3848 8.58339L13.2271 9.00481C13.1467 9.13502 13.1079 9.21273 13.1079 9.21273L13.9725 9.60586C13.9725 9.60586 16.083 11.1347 17.3762 12.1177C16.945 10.7901 15.6794 8.70434 15.6794 8.70434C15.6794 8.70434 15.3207 7.74599 16.0872 6.68448Z" fill="#E78724"/>
<path fill-rule="evenodd" clip-rule="evenodd" d="M21.2779 39.0365C16.4761 39.0365 14.8496 36.5988 14.8496 36.5988L15.6 38.4261C15.8837 39.2167 18.9096 41.6768 21.2706 41.6768" fill="#E78724"/>
<path fill-rule="evenodd" clip-rule="evenodd" d="M15.375 34.9516C15.375 34.9516 15.8168 37.6516 17.5857 37.6516C19.0889 37.6516 19.5318 35.3709 19.5318 34.8996L15.375 34.9516Z" fill="#E78724"/>
<path fill-rule="evenodd" clip-rule="evenodd" d="M12.4315 30.8796C12.5886 30.4469 13.1389 28.6978 13.3157 27.1059C13.5276 25.1993 13.4504 22.4107 13.4504 22.4107C13.4504 22.4107 12.9784 24.2386 12.5656 24.534C12.1531 24.8287 11.3864 26.8332 11.3864 26.8332C11.3864 26.8332 10.9757 29.8176 10.7803 30.8207C11.3212 30.929 11.7766 30.6103 12.4315 30.8796Z" fill="#E78724"/>
<path fill-rule="evenodd" clip-rule="evenodd" d="M8.15947 19.05C8.15947 19.05 9.16156 18.696 9.45671 16.5146C9.75137 14.3328 9.10263 12.446 9.10263 12.446C9.10263 12.446 9.16156 15.4531 8.80797 16.0429C8.45388 16.6324 8.15947 16.8093 7.74646 17.576C7.33344 18.3429 7.92325 18.8141 8.15947 19.05Z" fill="#E78724"/>
<path fill-rule="evenodd" clip-rule="evenodd" d="M9.35605 4.8933L9.15146 4.7637C8.54818 4.78409 9.35605 4.8933 9.35605 4.8933Z" fill="#FDC168"/>
<path fill-rule="evenodd" clip-rule="evenodd" d="M16.9029 6.03863C16.9029 6.03863 15.9598 5.88148 15.4878 5.17406C15.0159 4.46638 13.6796 3.05103 11.5493 3.03522C9.4191 3.01928 7.31152 3.60143 7.31152 3.60143L9.15125 4.76388C9.34584 4.75758 9.68609 4.76017 10.2487 4.77895C12.5576 4.85568 12.913 7.13943 12.913 7.13943L21.05 6.01899" fill="#FBA919"/>
<path fill-rule="evenodd" clip-rule="evenodd" d="M17.6898 18.6522C17.6898 18.6522 16.589 19.753 14.8985 19.3989C13.208 19.0453 12.1858 18.2984 12.1072 17.001C12.0286 15.7038 12.4613 15.1928 12.4613 15.1928C12.4613 15.1928 14.348 15.7828 15.2526 16.5691C16.1567 17.3551 16.8248 18.613 17.6898 18.6522Z" fill="white"/>
<path fill-rule="evenodd" clip-rule="evenodd" d="M16.3574 18.259C16.3574 18.259 15.4027 18.6951 14.3357 18.3399C12.9388 17.874 12.8458 16.4214 12.8458 16.4214C12.8458 16.4214 11.9889 18.936 14.3914 19.4201C16.3183 19.8083 17.4579 18.6916 17.4579 18.6916L16.3574 18.259Z" fill="#C9C9C9"/>
<path fill-rule="evenodd" clip-rule="evenodd" d="M17.0355 5.50514C16.9329 3.34851 18.7008 1.63084 19.3134 1.55771C19.3472 1.92316 19.2793 3.34864 19.8917 3.78698C20.07 2.62268 20.6729 1.33903 23.0536 0.498047C22.5437 1.85039 22.9855 2.98319 23.1959 3.50826C24.8217 2.03262 25.9171 2.2765 25.9171 2.2765C25.9171 2.2765 24.7875 4.22569 25.2293 5.50465C21.9657 5.24878 17.0515 5.85144 17.0355 5.50514Z" fill="#463014"/>
<path fill-rule="evenodd" clip-rule="evenodd" d="M10.1166 8.79013C9.33789 8.14411 9.91832 7.54453 9.85679 6.81054C9.82331 6.42001 9.79242 6.05147 9.66369 5.84824C8.94712 4.71668 7.25663 4.37334 7.2397 4.36976L6.44629 4.21434L6.97149 3.59994C7.03956 3.52038 9.19643 1.46246 12.5342 2.54004C14.8689 3.29305 16.5974 5.84651 16.6617 5.94967L15.491 6.5002C15.4773 6.47845 14.1109 4.07831 12.1078 3.43241C10.4886 2.90993 8.99629 3.40696 8.35706 3.73275C9.03657 4.00406 9.92499 4.49812 10.4603 5.34331C10.7128 5.74249 10.7555 6.24507 10.7966 6.73172C10.8508 7.37602 10.9016 7.98424 11.3758 8.3781L10.1166 8.79013Z" fill="#463014"/>
<path fill-rule="evenodd" clip-rule="evenodd" d="M8.03711 18.2208C8.03711 18.2208 9.01819 17.0042 9.30877 14.637C9.42293 13.7046 9.22019 11.8654 8.89576 11.1579C8.95469 12.8973 8.51252 14.637 8.51252 14.637C8.51252 14.637 8.2144 17.867 8.03711 18.2208Z" fill="#463014"/>
<path fill-rule="evenodd" clip-rule="evenodd" d="M13.2111 7.56143C13.2106 7.55883 12.8963 6.18537 12.0249 5.49202C10.7957 4.51428 9.29489 5.03441 9.28044 5.03898L9.0625 4.36577C9.13515 4.34218 10.8506 3.80166 12.4315 4.91296C14.0219 6.03056 14.2128 7.04364 14.2293 7.15558L13.2111 7.56143Z" fill="#463014"/>
<path fill-rule="evenodd" clip-rule="evenodd" d="M11.1188 17.3483C11.1188 17.3483 10.6041 16.6115 10.6967 15.8011C10.7428 15.4009 10.9282 14.9902 11.2593 14.8444C11.8746 14.574 12.1472 15.2715 12.1472 15.2715C12.1472 15.2715 11.2813 15.4852 11.1188 17.3483Z" fill="#463014"/>
<path fill-rule="evenodd" clip-rule="evenodd" d="M16.7697 18.4713C16.7912 18.5115 16.8022 18.534 16.8022 18.534C16.8022 18.534 15.1968 19.7388 13.5516 18.5162C12.6709 17.8611 12.7541 16.2408 13.0239 15.5537C13.7255 15.7127 14.3206 15.9993 14.818 16.334C14.1894 15.773 13.6392 15.3599 13.6406 15.3504L12.9262 15.1482L11.5375 14.672C11.5197 14.7779 11.0132 17.1521 12.4752 18.7698C13.1232 19.4871 16.1612 21.0935 17.6037 18.3468L16.7697 18.4713Z" fill="#463014"/>
<path fill-rule="evenodd" clip-rule="evenodd" d="M16.619 18.6479C17.5229 20.0236 19.8034 19.2375 19.7641 17.7831C19.7641 17.7831 18.2403 18.6241 16.894 17.0757C16.108 16.1717 13.5894 13.6791 10.1738 14.5075C12.5326 15.0261 15.6552 17.1812 16.619 18.6479Z" fill="#463014"/>
<path fill-rule="evenodd" clip-rule="evenodd" d="M9.85506 22.5305C10.0725 22.6561 10.8394 23.4503 10.8398 24.6381C10.8398 25.2337 10.7805 28.2259 10.4858 30.0538C10.9292 30.342 11.238 30.4032 11.6796 30.6969C11.9006 28.5798 12.0591 25.5114 11.9852 24.2727C11.9007 22.8607 11.1448 21.9131 10.4436 21.509C10.2241 21.3827 9.99467 21.2586 9.76364 21.1337C8.56276 20.4848 7.321 19.8136 7.321 18.6674C7.321 17.7709 7.66952 17.4904 8.03856 17.1931L8.07834 17.1609C8.32321 16.9631 8.60032 16.7387 8.76452 16.3703C9.2125 15.3631 9.28576 12.7972 8.76452 12.1459C8.5047 11.8213 7.80851 10.7299 8.00866 9.99657C8.08489 9.71661 8.26119 9.50917 8.54819 9.36215C8.85186 9.20661 9.26216 9.12779 9.76722 9.12779C10.7593 9.12779 11.8596 9.42973 12.4273 9.60949C14.4558 10.2524 16.9035 12.1061 17.6051 12.659C17.6253 12.6744 17.6371 12.6835 17.6392 12.6849L18.0882 12.9971L17.8074 12.5273C17.7901 12.498 16.0118 9.57391 12.832 8.50178C12.2134 8.29323 10.9981 7.94322 9.80379 7.94322C9.09266 7.94322 8.48925 8.06739 8.0115 8.31201C7.42923 8.60988 7.03486 9.08516 6.87104 9.68597C6.46952 11.1588 7.77726 12.7986 7.82186 12.851C7.97431 13.1232 8.03893 15.1003 7.6867 15.8916C7.63827 16.0008 7.50545 16.1082 7.33731 16.2438C7.28468 16.2864 7.22574 16.3307 7.16335 16.378C6.66645 16.7531 5.91504 17.3198 5.91504 18.626C5.91504 20.4134 7.72648 21.3825 9.18223 22.1617C9.42104 22.2902 9.64899 22.4118 9.85506 22.5305Z" fill="#463014"/>
<path fill-rule="evenodd" clip-rule="evenodd" d="M10.1166 8.79013C9.33789 8.14411 9.91832 7.54453 9.85679 6.81054C9.82331 6.42001 9.79242 6.05147 9.66369 5.84824C8.94712 4.71668 7.25663 4.37334 7.2397 4.36976L6.44629 4.21434L6.97149 3.59994C7.03956 3.52038 9.19643 1.46246 12.5342 2.54004C14.8689 3.29305 16.5974 5.84651 16.6617 5.94967L15.491 6.5002C15.4773 6.47845 14.1109 4.07831 12.1078 3.43241C10.4886 2.90993 8.99629 3.40696 8.35706 3.73275C9.03657 4.00406 9.92499 4.49812 10.4603 5.34331C10.7128 5.74249 10.7555 6.24507 10.7966 6.73172C10.8508 7.37602 10.9016 7.98424 11.3758 8.3781L10.1166 8.79013Z" fill="#463014"/>
<path fill-rule="evenodd" clip-rule="evenodd" d="M10.0919 8.92244L10.0416 8.8808C9.46411 8.40157 9.56653 7.9295 9.66574 7.47274C9.71083 7.26197 9.7584 7.04404 9.73913 6.82054C9.70762 6.44471 9.67735 6.09014 9.56418 5.91112C8.88184 4.83379 7.23286 4.4886 7.21655 4.48527L6.22559 4.29093L6.88248 3.52296C6.89447 3.50863 8.2793 2.1107 10.6247 2.1107C11.2641 2.1107 11.9191 2.21708 12.5708 2.4276C15.0076 3.21336 16.7461 5.86083 16.7625 5.88703L16.8328 5.99945L15.448 6.65079L15.3924 6.56258C15.2434 6.30857 13.9303 4.14317 12.0728 3.54397C11.6165 3.3967 11.1359 3.32232 10.6446 3.32232C9.75469 3.32232 9.03306 3.56484 8.64907 3.72768C9.29078 4.01665 10.069 4.50306 10.5615 5.27967C10.8292 5.70269 10.8725 6.21974 10.915 6.71923C10.9672 7.34043 11.0165 7.92455 11.4522 8.2863L11.6167 8.42269L10.0919 8.92244Z" fill="#463014"/>
<path fill-rule="evenodd" clip-rule="evenodd" d="M13.2111 7.56143C13.2106 7.55883 12.8963 6.18537 12.0249 5.49202C10.7957 4.51428 9.29489 5.03441 9.28044 5.03898L9.0625 4.36577C9.13515 4.34218 10.8506 3.80166 12.4315 4.91296C14.0219 6.03056 14.2128 7.04364 14.2293 7.15558L13.2111 7.56143Z" fill="#463014"/>
<path fill-rule="evenodd" clip-rule="evenodd" d="M13.1257 7.72205L13.095 7.58689C13.0918 7.57367 12.7836 6.24716 11.9502 5.58458C11.4753 5.2064 10.9026 5.01441 10.2489 5.01441C9.73862 5.01441 9.35946 5.13623 9.31807 5.15056L9.2054 5.18799L8.91309 4.28993L9.02514 4.25373C9.07543 4.2378 9.53069 4.09584 10.1747 4.09584C11.0244 4.09584 11.8277 4.34516 12.4988 4.81636C14.129 5.96201 14.328 7.02142 14.3451 7.1383L14.3594 7.23071L13.1257 7.72205ZM10.2492 4.77893C10.9475 4.77893 11.5871 4.99366 12.0976 5.39963C12.8375 5.98895 13.1855 7.02933 13.2908 7.40232L14.0929 7.08271C14.0202 6.79954 13.7005 5.94966 12.3632 5.0096C11.7234 4.55989 10.9874 4.33207 10.1751 4.33207C9.72933 4.33207 9.38303 4.40298 9.21192 4.44622L9.35659 4.89334C9.52437 4.84824 9.8472 4.77893 10.2492 4.77893Z" fill="#463014"/>
<path fill-rule="evenodd" clip-rule="evenodd" d="M17.5124 37.0038C17.164 37.0038 16.8084 36.8774 16.5619 36.664C16.3733 36.5015 15.7353 35.9155 15.454 35.1975C15.3489 34.9291 15.3725 34.7144 15.5249 34.5598C15.6299 34.4539 15.8478 34.3273 16.2902 34.3273L16.605 34.3268C16.9801 34.3264 17.6117 34.3264 18.1515 34.3264H18.669C19.0055 34.3264 19.2468 34.3992 19.3856 34.541C19.5637 34.7241 19.5066 34.957 19.4569 35.0796C19.3701 35.2943 19.0112 35.9931 18.4036 36.6427C18.1861 36.8754 17.8694 37.0038 17.5124 37.0038Z" fill="#463014"/>
<path fill-rule="evenodd" clip-rule="evenodd" d="M17.8771 18.7288L16.6191 18.6479C16.6191 18.6479 16.9407 19.2147 17.149 19.9478C17.3843 20.7771 16.9339 21.989 16.9339 21.989C16.9339 21.989 18.6112 20.09 17.8771 18.7288Z" fill="#463014"/>
<path fill-rule="evenodd" clip-rule="evenodd" d="M16.3073 40.3253C11.8301 39.9812 10.2549 35.7506 10.2549 34.8695L11.4241 34.87L10.8395 34.8695H11.4241C11.4299 35.2504 12.6198 38.8693 16.3969 39.1598L16.3073 40.3253Z" fill="#463014"/>
<path fill-rule="evenodd" clip-rule="evenodd" d="M15.0486 32.7457C14.9787 32.3413 14.9714 31.9578 15.0567 31.581C14.7165 31.3253 14.1059 31.2302 13.6478 31.0817C13.2732 30.8447 11.3563 31.3248 9.96551 29.6417C8.22301 27.5341 8.5897 26.2758 8.5897 26.2758C8.14295 26.7722 7.70992 26.583 7.02893 28.8976C6.34696 31.2126 7.34904 32.8265 9.2167 34.4467C10.0991 35.212 11.3464 35.5273 12.4193 35.648C12.0599 35.2871 13.0332 35.2511 13.704 35C13.6505 34.4584 13.7401 33.9326 14.144 33.5092C14.3875 33.2539 14.7008 33.1014 15.0259 32.9798C15.044 32.9378 15.0593 32.899 15.0766 32.8587C15.0659 32.8219 15.0554 32.7847 15.0486 32.7457Z" fill="white"/>
<path fill-rule="evenodd" clip-rule="evenodd" d="M13.6953 34.9859C13.6565 34.8722 13.6272 34.7564 13.5984 34.6397C13.5674 34.5123 13.413 34.1515 13.6034 34.5635C13.5544 34.458 13.5224 34.3493 13.4988 34.2397C10.4742 34.2359 7.84275 32.1592 8.35114 27.7931C7.95518 27.2675 7.4007 28.8532 7.4007 28.8532C7.4007 28.8532 5.88651 33.2499 9.79726 34.954C11.1003 35.5223 12.2519 35.9297 12.5236 35.7652C13.0895 35.8803 13.6004 35.4856 13.792 35.2262C13.7561 35.1465 13.7233 35.0667 13.6953 34.9859Z" fill="#C9C9C9"/>
<path fill-rule="evenodd" clip-rule="evenodd" d="M14.9943 32.1127C14.999 31.7441 15.0742 31.3872 15.2524 31.0315C15.2648 31.007 15.2793 30.9836 15.2926 30.9597C14.1287 30.9497 12.7882 30.8383 11.6468 30.3814C10.3922 29.8795 8.82276 28.1626 8.55306 26.1454C8.55306 26.1454 6.19023 27.9687 6.88456 31.8712C7.53627 35.5359 10.6028 36.7306 14.1002 36.9327C14.102 36.909 13.7068 36.0926 13.8317 35.5928C11.8458 35.7371 9.62507 34.9699 8.55306 33.2059C7.5716 31.5914 7.84686 28.835 8.25024 28.4311C9.23417 31.5357 12.7745 32.1668 14.9943 32.1127Z" fill="#463014"/>
<path fill-rule="evenodd" clip-rule="evenodd" d="M15.3611 29.89C14.7318 31.7369 13.4463 33.2316 13.4463 33.2316C13.4463 33.2316 15.2146 33.1512 15.3122 32.8382C15.3845 32.6076 16.9089 29.0389 17.494 24.8585C16.9436 25.7627 15.415 29.7319 15.3611 29.89Z" fill="#463014"/>
<path fill-rule="evenodd" clip-rule="evenodd" d="M25.3799 25.632C25.3799 25.632 27.3844 28.6978 28.8556 30.8734C29.0832 31.21 27.3844 31.2333 27.3844 31.2333L25.3799 25.632Z" fill="#E78724"/>
<path fill-rule="evenodd" clip-rule="evenodd" d="M24.4248 19.2757C24.4248 19.2757 25.0293 20.7836 25.3599 21.583C25.7193 22.452 27.0895 22.8843 27.0895 22.8843C27.0895 22.8843 26.3793 22.1393 26.3793 20.252C26.3793 19.4602 25.3572 19.1454 25.3572 19.1454L24.4248 19.2757Z" fill="#E78724"/>
<path fill-rule="evenodd" clip-rule="evenodd" d="M25.0346 20.1283C25.0346 20.1283 26.2729 21.6024 28.5727 20.7768C30.8726 19.9513 31.1082 17.0031 31.1082 16.1776C31.1082 15.352 26.7449 17.0031 26.1551 17.3569C25.5653 17.7108 24.4452 19.1258 25.0346 20.1283Z" fill="#E78724"/>
<path fill-rule="evenodd" clip-rule="evenodd" d="M33.7204 4.37725C33.7204 4.37725 31.5978 3.96424 30.1824 5.08468C28.7674 6.20488 28.3545 7.08959 28.3545 7.08959L30.7397 8.9801C30.7397 8.9801 31.8926 8.44576 32.2465 6.91255C32.6 5.37959 32.3643 4.67216 33.7204 4.37725Z" fill="#E78724"/>
<path fill-rule="evenodd" clip-rule="evenodd" d="M25.6541 15.8705C26.568 14.5733 28.0735 14.0074 29.2765 13.9137C31.327 13.7533 32.2999 14.4782 32.2999 14.4782C32.2999 14.4782 28.942 14.6204 27.974 15.8915C26.172 18.2574 23.5443 18.4497 23.124 17.93C23.6099 17.9543 24.1449 17.7135 24.7168 17.1723C25.0742 16.8338 25.3642 16.2823 25.6541 15.8705Z" fill="#E78724"/>
<path fill-rule="evenodd" clip-rule="evenodd" d="M31.3224 20.4575C31.3224 20.4575 35.0477 19.1767 34.3402 17.8797C33.6327 16.5823 34.1954 15.8755 34.1954 15.8755C34.1954 15.8755 36.2763 17.4285 35.7456 19.0793C35.4198 20.0926 34.8733 20.8262 31.872 22.2328C30.4324 24.9067 31.5747 29.7197 31.5066 29.7423C31.3925 29.7803 29.4855 28.7997 29.6157 24.2968C29.6553 22.9141 29.7659 21.0264 31.3224 20.4575Z" fill="#E78724"/>
<path fill-rule="evenodd" clip-rule="evenodd" d="M26.4413 6.68448C28.0031 7.47814 30.1436 8.58339 30.1436 8.58339L29.3014 9.00481C29.3818 9.13502 29.4208 9.21273 29.4208 9.21273L28.5562 9.60586C28.5562 9.60586 26.4455 11.1347 25.1523 12.1177C25.583 10.7901 26.8486 8.70434 26.8486 8.70434C26.8486 8.70434 27.2079 7.74599 26.4413 6.68448Z" fill="#E78724"/>
<path fill-rule="evenodd" clip-rule="evenodd" d="M21.251 39.0365C26.052 39.0365 27.6785 36.5988 27.6785 36.5988L26.9286 38.4261C26.6449 39.2167 23.6187 41.6768 21.2583 41.6768" fill="#E78724"/>
<path fill-rule="evenodd" clip-rule="evenodd" d="M27.1528 34.9516C27.1528 34.9516 26.7105 37.6516 24.9421 37.6516C23.4391 37.6516 22.9961 35.3709 22.9961 34.8996L27.1528 34.9516Z" fill="#E78724"/>
<path fill-rule="evenodd" clip-rule="evenodd" d="M30.0963 30.8796C29.9391 30.4469 29.3889 28.6978 29.2116 27.1059C28.9997 25.1993 29.0774 22.4107 29.0774 22.4107C29.0774 22.4107 29.5492 24.2386 29.9615 24.534C30.3746 24.8287 31.1409 26.8332 31.1409 26.8332C31.1409 26.8332 31.5515 29.8176 31.747 30.8207C31.2062 30.929 30.7513 30.6103 30.0963 30.8796Z" fill="#E78724"/>
<path fill-rule="evenodd" clip-rule="evenodd" d="M34.3691 19.05C34.3691 19.05 33.3665 18.696 33.0719 16.5146C32.7772 14.3328 33.4258 12.446 33.4258 12.446C33.4258 12.446 33.3665 15.4531 33.7205 16.0429C34.0746 16.6326 34.3691 16.8093 34.782 17.576C35.1944 18.3427 34.6048 18.8141 34.3691 19.05Z" fill="#E78724"/>
<path fill-rule="evenodd" clip-rule="evenodd" d="M33.1719 4.8933L33.3768 4.7637C33.9802 4.78409 33.1719 4.8933 33.1719 4.8933Z" fill="#FDC168"/>
<path fill-rule="evenodd" clip-rule="evenodd" d="M25.6251 6.03863C25.6251 6.03863 26.5688 5.88148 27.0402 5.17406C27.512 4.46638 28.8488 3.05103 30.9792 3.03522C33.1094 3.01928 35.217 3.60143 35.217 3.60143L33.3772 4.76388C33.1826 4.75758 32.8423 4.76017 32.2792 4.77895C29.9707 4.85568 29.6153 7.13943 29.6153 7.13943L21.4785 6.01899" fill="#FBA919"/>
<path fill-rule="evenodd" clip-rule="evenodd" d="M24.8389 18.6522C24.8389 18.6522 25.9397 19.753 27.6298 19.3989C29.3204 19.0453 30.3425 18.2984 30.4212 17.001C30.4996 15.7038 30.0675 15.1928 30.0675 15.1928C30.0675 15.1928 28.1803 15.7828 27.2762 16.5691C26.3721 17.3553 25.7039 18.613 24.8389 18.6522Z" fill="white"/>
<path fill-rule="evenodd" clip-rule="evenodd" d="M26.1709 18.259C26.1709 18.259 27.1259 18.6951 28.1926 18.3399C29.5898 17.874 29.6828 16.4214 29.6828 16.4214C29.6828 16.4214 30.5392 18.936 28.1367 19.4201C26.2102 19.8083 25.0703 18.6916 25.0703 18.6916L26.1709 18.259Z" fill="#C9C9C9"/>
<path fill-rule="evenodd" clip-rule="evenodd" d="M32.4108 8.79013C33.1896 8.14411 32.6096 7.54453 32.6712 6.81054C32.704 6.42001 32.7349 6.05147 32.8638 5.84824C33.5805 4.71668 35.2708 4.37334 35.2882 4.36976L36.0818 4.21434L35.5565 3.59994C35.4884 3.52038 33.3315 1.46246 29.9933 2.54004C27.6589 3.29305 25.9305 5.84651 25.8662 5.94967L27.0364 6.5002C27.0507 6.47845 28.4172 4.07831 30.4203 3.43241C32.0393 2.90993 33.5317 3.40696 34.1705 3.73275C33.4914 4.00406 32.6026 4.49812 32.0673 5.34331C31.8147 5.74249 31.7725 6.24507 31.7315 6.73172C31.6772 7.37602 31.6259 7.98424 31.1517 8.3781L32.4108 8.79013Z" fill="#463014"/>
<path fill-rule="evenodd" clip-rule="evenodd" d="M34.4908 18.2208C34.4908 18.2208 33.5102 17.0042 33.2196 14.637C33.1055 13.7046 33.3078 11.8654 33.6321 11.1579C33.5732 12.8973 34.0158 14.637 34.0158 14.637C34.0158 14.637 34.314 17.867 34.4908 18.2208Z" fill="#463014"/>
<path fill-rule="evenodd" clip-rule="evenodd" d="M29.3173 7.56143C29.3178 7.55883 29.6321 6.18537 30.5036 5.49202C31.7327 4.51428 33.2336 5.03441 33.2476 5.03898L33.4662 4.36577C33.3933 4.34218 31.6781 3.80166 30.0967 4.91296C28.5063 6.03056 28.3159 7.04364 28.2988 7.15558L29.3173 7.56143Z" fill="#463014"/>
<path fill-rule="evenodd" clip-rule="evenodd" d="M31.4094 17.3483C31.4094 17.3483 31.9241 16.6115 31.831 15.8011C31.7855 15.4009 31.6 14.9902 31.2689 14.8444C30.6537 14.574 30.3809 15.2715 30.3809 15.2715C30.3809 15.2715 31.2469 15.4852 31.4094 17.3483Z" fill="#463014"/>
<path fill-rule="evenodd" clip-rule="evenodd" d="M25.7583 18.4713C25.7368 18.5115 25.7256 18.534 25.7256 18.534C25.7256 18.534 27.3305 19.7388 28.9758 18.5162C29.857 17.8611 29.7738 16.2408 29.5035 15.5537C28.8022 15.7127 28.2072 15.9993 27.7096 16.334C28.3383 15.7729 28.8886 15.3599 28.8866 15.3504L29.6015 15.1482L30.9901 14.6723C31.0079 14.7782 31.5143 17.1523 30.0517 18.7701C29.4039 19.4874 26.3659 21.0937 24.9238 18.347L25.7583 18.4713Z" fill="#463014"/>
<path fill-rule="evenodd" clip-rule="evenodd" d="M25.9086 18.6479C25.0047 20.0236 22.7248 19.2375 22.7642 17.7831C22.7642 17.7831 24.2875 18.6241 25.6338 17.0757C26.4198 16.1717 28.9389 13.6791 32.3544 14.5075C29.9957 15.0261 26.8728 17.1812 25.9086 18.6479Z" fill="#463014"/>
<path fill-rule="evenodd" clip-rule="evenodd" d="M32.6739 22.5305C32.4564 22.6561 31.6892 23.4503 31.6892 24.6381C31.6887 25.2337 31.7481 28.2259 32.0432 30.0538C31.5997 30.342 31.2908 30.4032 30.8493 30.6969C30.6283 28.5798 30.4693 25.5114 30.5436 24.2727C30.628 22.8607 31.3837 21.9131 32.0847 21.509C32.3043 21.3827 32.5338 21.2586 32.7654 21.1337C33.9662 20.4848 35.208 19.8136 35.208 18.6674C35.208 17.7709 34.8591 17.4904 34.4901 17.1931L34.4508 17.1609C34.2059 16.9631 33.9283 16.7387 33.7646 16.3703C33.3165 15.3631 33.243 12.7972 33.7641 12.1459C34.0239 11.8213 34.7206 10.7299 34.5205 9.99657C34.4437 9.71661 34.2673 9.50917 33.9804 9.36215C33.6766 9.20661 33.267 9.12779 32.7614 9.12779C31.7699 9.12779 30.669 9.42973 30.1018 9.60949C28.0733 10.2524 25.6256 12.1061 24.9235 12.659C24.9035 12.6744 24.8919 12.6835 24.8896 12.6849L24.4404 12.9971L24.7213 12.5273C24.739 12.498 26.517 9.57391 29.6966 8.50178C30.3153 8.29323 31.5305 7.94322 32.725 7.94322C33.4361 7.94322 34.0389 8.06739 34.5171 8.31201C35.0995 8.60988 35.4936 9.08516 35.6577 9.68597C36.0592 11.1588 34.7514 12.7986 34.7068 12.851C34.5543 13.1232 34.4898 15.1003 34.8416 15.8916C34.89 16.0008 35.0228 16.1082 35.1913 16.2438C35.244 16.2864 35.3024 16.3307 35.3653 16.378C35.8623 16.7531 36.6133 17.3198 36.6133 18.626C36.6133 20.4134 34.8019 21.3825 33.3467 22.1617C33.1076 22.2902 32.8794 22.4118 32.6739 22.5305Z" fill="#463014"/>
<path fill-rule="evenodd" clip-rule="evenodd" d="M30.5122 8.57982C30.2241 8.09181 29.4872 7.14952 27.789 6.32151C25.8937 5.39776 23.7003 4.9289 21.2685 4.92779V4.92729H21.2638H21.2591V4.92754C18.827 4.92877 16.6332 5.39763 14.7385 6.32127C13.0402 7.1494 12.3036 8.09156 12.0153 8.57957L11.8916 8.74327L13.3459 9.06696L13.392 9.00877L13.4163 8.9554C13.4388 8.85928 13.6337 8.34039 15.2552 7.54969C16.9885 6.70426 19.0102 6.27568 21.2636 6.27494C23.5172 6.27568 25.5381 6.70426 27.2713 7.54969C28.8928 8.34039 29.0884 8.85928 29.1107 8.9554L29.1349 9.00877L29.1805 9.06696L30.6352 8.74327L30.5122 8.57982Z" fill="#463014"/>
<path fill-rule="evenodd" clip-rule="evenodd" d="M32.4108 8.79013C33.1896 8.14411 32.6096 7.54453 32.6712 6.81054C32.704 6.42001 32.7349 6.05147 32.8638 5.84824C33.5805 4.71668 35.2708 4.37334 35.2882 4.36976L36.0818 4.21434L35.5565 3.59994C35.4884 3.52038 33.3315 1.46246 29.9933 2.54004C27.6589 3.29305 25.9305 5.84651 25.8662 5.94967L27.0364 6.5002C27.0507 6.47845 28.4172 4.07831 30.4203 3.43241C32.0393 2.90993 33.5317 3.40696 34.1705 3.73275C33.4914 4.00406 32.6026 4.49812 32.0673 5.34331C31.8147 5.74249 31.7725 6.24507 31.7315 6.73172C31.6772 7.37602 31.6259 7.98424 31.1517 8.3781L32.4108 8.79013Z" fill="#463014"/>
<path fill-rule="evenodd" clip-rule="evenodd" d="M30.9125 8.42321L31.0764 8.28682C31.5125 7.92507 31.5614 7.34082 31.614 6.71975C31.6563 6.22001 31.6999 5.70296 31.9676 5.28019C32.4596 4.50382 33.2384 4.0173 33.88 3.72807C33.4959 3.56536 32.7741 3.32284 31.8841 3.32284C31.3925 3.32284 30.9128 3.39722 30.4564 3.54448C28.5984 4.14368 27.2855 6.30908 27.1368 6.5631L27.0811 6.65118L25.6963 5.99997L25.7667 5.88754C25.783 5.86135 27.5209 3.21387 29.9579 2.42812C30.6096 2.21759 31.2645 2.11134 31.9045 2.11134C34.2498 2.11134 35.6347 3.50952 35.6466 3.5236L36.3035 4.29157L35.3124 4.48591C35.296 4.48924 33.6471 4.83418 32.9643 5.91176C32.8511 6.0909 32.8215 6.44511 32.7893 6.82118C32.7707 7.0448 32.8176 7.26274 32.8633 7.47339C32.9624 7.93014 33.0647 8.40258 32.487 8.88144L32.4369 8.92308L30.9125 8.42321Z" fill="#463014"/>
<path fill-rule="evenodd" clip-rule="evenodd" d="M29.3173 7.56143C29.3178 7.55883 29.6321 6.18537 30.5036 5.49202C31.7327 4.51428 33.2336 5.03441 33.2476 5.03898L33.4662 4.36577C33.3933 4.34218 31.6781 3.80166 30.0967 4.91296C28.5063 6.03056 28.3159 7.04364 28.2988 7.15558L29.3173 7.56143Z" fill="#463014"/>
<path fill-rule="evenodd" clip-rule="evenodd" d="M28.1699 7.23071L28.1836 7.1383C28.2009 7.02142 28.4001 5.96226 30.03 4.81636C30.7006 4.34516 31.5042 4.09584 32.3538 4.09584C32.9982 4.09584 33.4535 4.23755 33.5039 4.25373L33.6159 4.28993L33.3237 5.18799L33.2109 5.15056C33.1687 5.13635 32.7897 5.01441 32.2797 5.01441C31.6261 5.01441 31.0537 5.20615 30.5788 5.58458C29.7454 6.2474 29.4369 7.5738 29.434 7.58689L29.4034 7.72181L28.1699 7.23071ZM33.1723 4.89334L33.3174 4.44622C33.1462 4.40274 32.7995 4.33207 32.3538 4.33207C31.5416 4.33207 30.8054 4.56013 30.1659 5.0096C28.8281 5.94991 28.5084 6.79954 28.4359 7.08271L29.2385 7.40232C29.3435 7.02909 29.6912 5.9887 30.4315 5.39963C30.9424 4.99366 31.5812 4.77893 32.2795 4.77893C32.681 4.77893 33.0045 4.84824 33.1723 4.89334Z" fill="#463014"/>
<path fill-rule="evenodd" clip-rule="evenodd" d="M24.1258 36.6427C23.5183 35.9932 23.1589 35.2943 23.072 35.0796C23.0224 34.9572 22.9658 34.7241 23.1439 34.541C23.2828 34.3992 23.5235 34.3264 23.86 34.3264H24.3779C24.9177 34.3264 25.5489 34.3264 25.9242 34.3268L26.239 34.3273C26.6812 34.3273 26.899 34.4538 27.0039 34.5598C27.1564 34.7141 27.1802 34.9288 27.0752 35.1975C26.7939 35.9156 26.1558 36.5016 25.9671 36.664C25.72 36.8774 25.3653 37.0038 25.0169 37.0038C24.6597 37.0038 24.3433 36.8754 24.1258 36.6427Z" fill="#463014"/>
<path fill-rule="evenodd" clip-rule="evenodd" d="M24.6509 18.7288L25.9081 18.6479C25.9081 18.6479 25.587 19.2147 25.3787 19.9478C25.1435 20.7771 25.5938 21.989 25.5938 21.989C25.5938 21.989 23.9164 20.09 24.6509 18.7288Z" fill="#463014"/>
<path fill-rule="evenodd" clip-rule="evenodd" d="M21.2641 14.2378C20.4624 14.2378 19.4171 14.2158 18.6328 13.6522C18.6328 13.6522 19.6597 15.4524 21.2627 15.4524L21.2641 15.2246L21.2655 15.4524C22.8686 15.4524 23.8954 13.6522 23.8954 13.6522C23.1111 14.2158 22.0651 14.2378 21.2641 14.2378Z" fill="#E78724"/>
<path fill-rule="evenodd" clip-rule="evenodd" d="M23.4715 14.2291C22.6673 14.7158 21.9491 14.8844 21.264 14.8994C20.5789 14.8844 19.8609 14.7158 19.0566 14.2291C19.0566 14.2291 20.2277 15.6582 21.2581 15.6692V15.67C21.26 15.67 21.2618 15.6696 21.2639 15.6696C21.2658 15.6696 21.2676 15.67 21.2697 15.67V15.6692C22.2999 15.6582 23.4715 14.2291 23.4715 14.2291Z" fill="#463014"/>
<path fill-rule="evenodd" clip-rule="evenodd" d="M26.2215 40.3254L26.1318 39.1597C29.908 38.8693 31.0979 35.2503 31.1041 34.8694H32.2733C32.2738 35.7505 30.6981 39.9813 26.2215 40.3254Z" fill="#463014"/>
<path fill-rule="evenodd" clip-rule="evenodd" d="M27.4788 32.7457C27.5491 32.3413 27.5559 31.9578 27.4707 31.581C27.8114 31.3253 28.4215 31.2302 28.8796 31.0817C29.2542 30.8447 31.1717 31.3248 32.5624 29.6417C34.3049 27.5341 33.9377 26.2758 33.9377 26.2758C34.3848 26.7722 34.8175 26.583 35.499 28.8976C36.181 31.2126 35.1784 32.8265 33.3107 34.4467C32.4285 35.212 31.181 35.5273 30.1082 35.648C30.4676 35.2871 29.4943 35.2511 28.8238 35C28.8774 34.4584 28.7873 33.9326 28.3836 33.5092C28.1406 33.2539 27.8268 33.1014 27.5019 32.9798C27.4837 32.9378 27.468 32.899 27.4512 32.8587C27.4619 32.8219 27.4721 32.7847 27.4788 32.7457Z" fill="white"/>
<path fill-rule="evenodd" clip-rule="evenodd" d="M28.8328 34.9859C28.8721 34.8722 28.9009 34.7564 28.9297 34.6397C28.9612 34.5123 29.1156 34.1515 28.925 34.5635C28.9739 34.458 29.0059 34.3493 29.0295 34.2397C32.0542 34.2359 34.6856 32.1592 34.1767 27.7931C34.5727 27.2675 35.1275 28.8532 35.1275 28.8532C35.1275 28.8532 36.6418 33.2499 32.7311 34.954C31.428 35.5223 30.2766 35.9297 30.0048 35.7652C29.4383 35.8803 28.9275 35.4856 28.7363 35.2262C28.772 35.1465 28.8055 35.0667 28.8328 34.9859Z" fill="#C9C9C9"/>
<path fill-rule="evenodd" clip-rule="evenodd" d="M27.5332 32.1127C27.529 31.7441 27.4533 31.3872 27.2756 31.0315C27.263 31.007 27.2486 30.9836 27.2354 30.9597C28.3992 30.9497 29.7398 30.8383 30.8812 30.3814C32.1357 29.8795 33.7051 28.1626 33.9749 26.1454C33.9749 26.1454 36.3378 27.9687 35.6434 31.8712C34.9912 35.5359 31.9251 36.7306 28.4278 36.9327C28.426 36.909 28.8213 36.0926 28.6963 35.5928C30.6817 35.7371 32.9024 34.9699 33.9751 33.2059C34.9559 31.5914 34.6808 28.835 34.2774 28.4311C33.2938 31.5357 29.7531 32.1668 27.5332 32.1127Z" fill="#463014"/>
<path fill-rule="evenodd" clip-rule="evenodd" d="M28.9457 33.0318C28.5279 32.5801 27.7597 32.0417 25.9884 32.0417C25.9884 32.0417 22.6302 32.0397 21.2704 32.0388H21.2646H21.2588C19.8992 32.0398 16.5401 32.0417 16.5401 32.0417C14.7693 32.0417 14.001 32.5802 13.583 33.0318C12.974 33.6892 12.8785 34.6036 13.2998 35.7467C14.4193 38.7892 15.9924 41.8802 21.2585 41.8845V41.885C21.2605 41.885 21.2622 41.8845 21.2643 41.8845C21.2662 41.8845 21.2681 41.885 21.2702 41.885V41.8845C26.5358 41.8799 28.1089 38.7892 29.2288 35.7467C29.6501 34.6036 29.5543 33.6892 28.9457 33.0318ZM28.1259 35.5334C27.5925 37.0611 26.1591 40.7591 21.2642 40.7655C16.3687 40.7591 14.9358 37.0613 14.4025 35.5334C14.1073 34.6857 14.1298 34.0585 14.4715 33.6688C14.7049 33.4024 15.2411 33.0845 16.4631 33.0845L17.7397 33.084C18.6815 33.0832 19.864 33.0822 21.2644 33.0817C22.6643 33.0822 23.8473 33.0832 24.7889 33.084L26.065 33.0845C27.2874 33.0845 27.8234 33.4023 28.0569 33.6688C28.3983 34.0588 28.421 34.6857 28.1259 35.5334Z" fill="#463014"/>
<path fill-rule="evenodd" clip-rule="evenodd" d="M27.1668 29.89C27.7962 31.7369 29.0816 33.2316 29.0816 33.2316C29.0816 33.2316 27.3134 33.1512 27.2156 32.8382C27.1439 32.6076 25.6193 29.0389 25.0342 24.8585C25.5842 25.7627 27.1128 29.7319 27.1668 29.89Z" fill="#463014"/>
</g>
</g>
<defs>
<clipPath id="clip0_150_227">
<rect width="30.7959" height="41.4209" fill="white" transform="translate(5.89355 0.498047)"/>
</clipPath>
<clipPath id="clip1_150_227">
<rect width="30.7959" height="41.4209" fill="white" transform="translate(5.89355 0.498047)"/>
</clipPath>
</defs>
</svg>
