<svg width="43" height="43" viewBox="0 0 43 43" fill="none" xmlns="http://www.w3.org/2000/svg">
<g clip-path="url(#clip0_150_228)">
<g clip-path="url(#clip1_150_228)">
<g clip-path="url(#clip2_150_228)">
<path fill-rule="evenodd" clip-rule="evenodd" d="M26.3363 40.737L26.7343 34.1059L27.8331 32.2301C27.8331 32.2301 25.3322 33.2532 21.1452 33.2532C16.9581 33.2532 14.4951 32.2491 14.4951 32.2491L15.7266 34.2952L16.1622 40.737C16.1622 41.4276 18.4397 41.9874 21.2493 41.9874C24.0588 41.9874 26.3363 41.4276 26.3363 40.737Z" fill="#D34A47"/>
<path fill-rule="evenodd" clip-rule="evenodd" d="M25.0813 9.77073L25.9166 6.46912L30.5422 1.60187L29.3231 0.563461L24.4259 5.7483L23.456 9.69285C22.7533 9.6691 22.02 9.65641 21.2655 9.65641C16.1079 9.65641 11.9268 10.2442 11.9268 10.9691C11.9268 11.6941 16.1079 12.2819 21.2655 12.2819C26.4231 12.2819 30.6041 11.6941 30.6041 10.9691C30.6041 10.4353 28.3365 9.97583 25.0813 9.77073Z" fill="#D34A47"/>
<path fill-rule="evenodd" clip-rule="evenodd" d="M24.595 11.6197C24.595 11.6197 24.4141 11.6603 23.882 11.6626C23.3497 11.6647 22.9717 11.6591 22.8212 11.522C22.7807 11.4852 22.7586 11.4121 22.7588 11.3626C22.7592 11.2683 22.8261 11.2128 22.9113 11.1781L22.9919 11.3045C22.9569 11.3166 22.9368 11.3309 22.9368 11.3461C22.9365 11.4177 23.481 11.4667 23.8975 11.4614C24.3141 11.4563 24.8174 11.422 24.8179 11.3514C24.8179 11.3301 24.7798 11.31 24.7136 11.2941L24.7938 11.1686C24.9017 11.2021 24.996 11.2669 24.9957 11.3789C24.9947 11.5694 24.7523 11.5984 24.595 11.6197Z" fill="white"/>
<path fill-rule="evenodd" clip-rule="evenodd" d="M30.533 1.6115C30.6493 1.47716 30.4728 1.13355 30.1388 0.844119C29.8046 0.554838 29.4394 0.429153 29.3229 0.563491C29.2065 0.697829 29.3831 1.04145 29.7173 1.33073C30.0513 1.62008 30.4166 1.74591 30.533 1.6115Z" fill="#D34A47"/>
<path fill-rule="evenodd" clip-rule="evenodd" d="M26.1143 24.5399C26.0047 23.4852 28.4214 21.9576 27.8011 21.9087C26.466 21.985 25.8015 23.4733 25.1297 25.0322C24.8836 25.6035 24.0412 28.0396 23.4888 27.7397C22.9365 27.4399 24.2048 25.4366 24.5603 24.247C24.1501 24.5478 22.6458 25.7165 22.2581 24.622C21.6348 25.1513 20.3029 25.4381 20.4532 24.0476C20.1216 24.6349 19.3774 25.455 18.4841 25.1142C17.311 24.6668 19.1639 20.93 19.6246 21.1185C20.0854 21.3069 19.5316 22.1582 19.3866 22.4888C19.0676 23.2163 18.6991 24.1308 18.9453 24.318C19.367 24.6388 20.5146 23.1047 20.5401 23.0709C20.7547 22.7874 21.3662 20.9322 21.859 21.1452C22.3519 21.3583 20.6298 23.8077 21.2737 24.2937C21.4035 24.3919 21.9349 24.2333 22.2581 23.8835C22.4672 23.6573 22.3953 23.1563 23.0924 21.4938C23.7896 19.8313 24.4109 17.761 24.889 17.9187C25.3671 18.0764 24.973 19.139 24.8015 19.5351C23.9966 21.3943 22.6049 24.4658 23.2612 24.2333C23.9176 24.0008 24.2594 23.9872 24.9021 23.235C25.5448 22.4829 25.5152 21.244 25.9436 21.2703C26.3721 21.2967 26.3002 21.694 26.1963 21.9964C26.6179 21.5139 28.1949 20.4978 28.5756 21.5042C29.0266 22.6957 26.3194 24.4168 26.9944 24.329C27.6525 24.2434 28.7187 23.5682 29.1739 22.9542L30.427 11.689C30.427 11.689 29.1661 12.7325 21.1444 12.7325C13.1226 12.7325 11.9922 11.7107 11.9922 11.7107L13.059 21.9931C13.6252 20.3838 14.9698 17.1286 17.0893 17.2379C18.0534 17.2876 19.3405 19.144 18.238 19.207C17.7713 19.2335 17.724 18.2803 17.1714 18.1403C16.7726 18.0393 16.2174 18.3635 15.8587 18.7147C15.1431 19.415 13.6042 22.1779 13.8075 23.5554C14.0666 25.3115 16.2309 22.9452 16.5971 22.2426C16.855 21.7477 17.0292 20.2814 17.5932 20.4353C18.1574 20.5891 17.544 22.1023 17.1352 23.4402C16.6758 24.9425 16.4344 26.5272 15.8587 26.3449C15.2829 26.1627 16.2207 24.2234 16.1868 23.8835C15.6456 24.3828 14.6487 25.6469 13.3732 25.0212L14.0357 31.4065C14.0357 31.4065 15.7965 32.7978 21.1009 32.7978C26.4053 32.7978 28.2313 31.4282 28.2313 31.4282L29.054 24.0326C28.3809 24.688 26.2507 25.8518 26.1143 24.5399Z" fill="#D34A47"/>
</g>
</g>
</g>
<defs>
<clipPath id="clip0_150_228">
<rect width="42.5" height="42.5" fill="white"/>
</clipPath>
<clipPath id="clip1_150_228">
<rect width="18.8428" height="41.5039" fill="white" transform="translate(11.8701 0.498047)"/>
</clipPath>
<clipPath id="clip2_150_228">
<rect width="18.7721" height="41.5039" fill="white" transform="translate(11.8701 0.498047)"/>
</clipPath>
</defs>
</svg>
