<svg width="43" height="43" viewBox="0 0 43 43" fill="none" xmlns="http://www.w3.org/2000/svg">
<g clip-path="url(#clip0_150_226)">
<g clip-path="url(#clip1_150_226)">
<g clip-path="url(#clip2_150_226)">
<path fill-rule="evenodd" clip-rule="evenodd" d="M15.7728 16.1866C17.2156 16.1803 18.6953 16.5942 19.8167 17.5271C20.3913 17.9922 20.8555 18.5758 21.2496 19.1971C21.9589 18.0505 22.995 17.0764 24.2727 16.6068C25.8295 16.0223 27.5893 16.0627 29.1435 16.6355C30.501 17.1311 31.688 17.9949 32.7645 18.9448C33.6067 19.6882 34.386 20.5016 35.2533 21.2172C35.7104 21.588 36.2015 21.9355 36.7635 22.1277C37.5105 22.3826 38.394 22.142 38.9282 21.5665C39.4229 21.0278 39.3924 20.0967 38.8474 19.6047C38.5009 19.3057 37.9083 19.3659 37.6632 19.7645C37.4486 20.0806 37.5689 20.4747 37.7368 20.7809C37.2906 20.455 36.8434 20.0007 36.8452 19.4081C36.7528 18.723 37.2609 18.1188 37.8697 17.879C39.0575 17.4041 40.5471 17.8135 41.2968 18.8595C42.0177 19.8354 42.0752 21.1185 41.9495 22.2812C41.7977 23.3855 41.18 24.4163 40.2642 25.0555C38.9785 25.9731 37.3489 26.2578 35.7983 26.238C34.3079 26.1976 32.8328 25.8609 31.4519 25.3042C29.1426 24.3759 26.9815 23.0928 24.5968 22.3512C23.8058 22.0442 22.9645 21.8781 22.1188 21.8269C21.4454 21.8224 20.807 21.791 20.1713 21.8341C19.3956 21.9086 18.6243 22.0675 17.898 22.3521C15.4729 23.1063 13.2795 24.4217 10.9262 25.3518C8.93927 26.1249 6.73775 26.484 4.6287 26.0548C3.44893 25.816 2.27455 25.2944 1.47816 24.3651C0.796696 23.575 0.46988 22.5173 0.502202 21.4812C0.464492 20.5034 0.679078 19.4646 1.32553 18.7033C1.92708 17.9814 2.89586 17.6151 3.82603 17.6959C4.42489 17.7237 5.03184 17.985 5.40175 18.4671C5.69265 18.8487 5.71061 19.3713 5.58311 19.8175C5.42779 20.2188 5.10726 20.5322 4.75889 20.7728C4.93667 20.4729 5.04441 20.077 4.83431 19.7636C4.57573 19.3461 3.93916 19.3039 3.60247 19.6469C3.18766 20.0734 3.10057 20.7701 3.3789 21.2927C3.68058 21.8403 4.30458 22.1528 4.90883 22.2165C5.82284 22.2955 6.61564 21.729 7.28633 21.1795C8.6744 19.9845 9.9242 18.6171 11.464 17.6061C12.7336 16.7549 14.2294 16.1794 15.7728 16.1866Z" fill="#423426"/>
</g>
</g>
</g>
<defs>
<clipPath id="clip0_150_226">
<rect width="42.5" height="42.5" fill="white"/>
</clipPath>
<clipPath id="clip1_150_226">
<rect width="41.5039" height="10.127" fill="white" transform="translate(0.498047 16.1865)"/>
</clipPath>
<clipPath id="clip2_150_226">
<rect width="41.5039" height="10.127" fill="white" transform="translate(0.498047 16.1865)"/>
</clipPath>
</defs>
</svg>
