<svg width="43" height="43" viewBox="0 0 43 43" fill="none" xmlns="http://www.w3.org/2000/svg">
<path d="M36.5832 0C38.6743 0 40.3739 1.67815 40.4077 3.76174L40.4082 3.825V38.675C40.4082 40.7661 38.7295 42.4657 36.6465 42.4995L36.5832 42.5H5.9832C3.89208 42.5 2.1925 40.8213 2.15872 38.7382L2.1582 38.675V3.825C2.1582 1.73335 3.83687 0.0342844 5.91996 0.000512354L5.9832 0H36.5832ZM36.5832 2.125H5.9832C5.06072 2.125 4.30709 2.86422 4.28376 3.7812L4.2832 3.825V38.675C4.2832 39.5975 5.02242 40.3511 5.93941 40.3744L5.9832 40.375H36.5832C37.5062 40.375 38.2593 39.6358 38.2826 38.7188L38.2832 38.675V3.825C38.2832 2.88788 37.5209 2.125 36.5832 2.125ZM11.7207 27.625L16.502 31.875L11.7207 36.125V27.625ZM15.9707 6.375V18.4402C18.0925 17.7496 21.0585 17 23.9395 17C26.5665 17 28.139 18.0328 28.9954 18.8992C30.8046 20.7295 30.8477 23.0559 30.8453 23.3662L30.8452 23.375L30.8457 36.125H26.5957V23.4334C26.575 22.4416 26.0969 21.25 23.9395 21.25C19.6615 21.25 14.868 23.3801 14.7257 23.4438L14.7228 23.4451L11.7207 24.8051V6.375H15.9707ZM30.8457 6.375C30.5588 8.789 29.5803 11.1031 27.6582 13.2812H23.4082C25.0785 11.0898 26.1271 8.78369 26.5957 6.375H30.8457Z" fill="#430098"/>
</svg>
