<svg width="43" height="43" viewBox="0 0 43 43" fill="none" xmlns="http://www.w3.org/2000/svg">
<path d="M11.1323 0.498047H9.26172V6.09491H11.1324V4.22075H12.8436V6.09491H14.7143V0.498047H12.8435V2.34627H11.1323V0.498047Z" fill="black"/>
<path d="M15.5274 2.35405H17.1743L17.1744 6.09491H19.0451V2.35405H20.6927V0.498047H15.5274V2.35405Z" fill="black"/>
<path d="M21.5125 0.498047H23.4631L24.663 2.46462L25.8617 0.498047H27.813V6.09491H25.95V3.3208L24.663 5.3108H24.6308L23.3429 3.3208V6.09491H21.5125V0.498047Z" fill="black"/>
<path d="M30.6152 0.498047H28.744V6.09491H33.246V4.24491H30.6152V0.498047Z" fill="black"/>
<path fill-rule="evenodd" clip-rule="evenodd" d="M9.20134 38.6684L6.52539 8.65454H35.9294L33.2507 38.6637L21.2094 42.002L9.20134 38.6684Z" fill="#E44D26"/>
<path fill-rule="evenodd" clip-rule="evenodd" d="M21.2275 39.4503L30.9574 36.7528L33.2466 11.1086H21.2275V39.4503Z" fill="#F16529"/>
<path d="M16.3564 22.2403H21.2275V25.9214H12.9899L11.9971 14.7897H21.2275V18.4709H16.02L16.3564 22.2403Z" fill="#EBEBEB"/>
<path d="M21.2113 31.8048L21.2275 31.8005V35.6304L21.2105 35.6351L13.6701 33.5418L13.1544 27.762H16.8496L17.1117 30.6978L21.2113 31.8048Z" fill="#EBEBEB"/>
<path d="M21.2148 14.7897H30.436L30.1064 18.4709H21.2148V14.7897Z" fill="white"/>
<path d="M21.2148 25.9214V22.2403H29.7715L29.6816 23.2288L28.7613 33.5418L21.2148 35.6333V31.8036L25.3204 30.6955L25.7477 25.9214H21.2148Z" fill="white"/>
</svg>
