<svg width="43" height="43" viewBox="0 0 43 43" fill="none" xmlns="http://www.w3.org/2000/svg">
<g clip-path="url(#clip0_150_237)">
<path fill-rule="evenodd" clip-rule="evenodd" d="M0.498047 0.498047H42.002V42.002H0.498047V0.498047Z" fill="#F7DF1E"/>
<path fill-rule="evenodd" clip-rule="evenodd" d="M11.4112 35.1818L14.5874 33.2596C15.2001 34.346 15.7575 35.2653 17.0945 35.2653C18.3761 35.2653 19.1842 34.7639 19.1842 32.8139V19.5524H23.0845V32.869C23.0845 36.9087 20.7165 38.7475 17.2617 38.7475C14.1416 38.7475 12.3305 37.1315 11.4111 35.1815" fill="black"/>
<path fill-rule="evenodd" clip-rule="evenodd" d="M25.2021 34.7638L28.3779 32.9251C29.2139 34.2904 30.3005 35.2932 32.2227 35.2932C33.8388 35.2932 34.8693 34.4852 34.8693 33.3708C34.8693 32.0335 33.8107 31.5599 32.0276 30.7801L31.0528 30.3619C28.2388 29.1641 26.3721 27.6597 26.3721 24.4836C26.3721 21.5583 28.6009 19.3294 32.0835 19.3294C34.5631 19.3294 36.3461 20.1931 37.6275 22.4498L34.5907 24.3999C33.9221 23.202 33.1979 22.7285 32.0836 22.7285C30.9413 22.7285 30.2169 23.4528 30.2169 24.3999C30.2169 25.5701 30.9413 26.0438 32.6127 26.7682L33.5877 27.1861C36.9031 28.607 38.7698 30.0556 38.7698 33.3151C38.7698 36.8257 36.0117 38.7478 32.3064 38.7478C28.6846 38.7478 26.3443 37.0206 25.2022 34.7638" fill="black"/>
</g>
<defs>
<clipPath id="clip0_150_237">
<rect width="42.5" height="42.5" fill="white"/>
</clipPath>
</defs>
</svg>
