<svg width="25" height="24" viewBox="0 0 25 24" fill="none" xmlns="http://www.w3.org/2000/svg">
<path d="M18.4287 3C20.0856 3 21.4287 4.34315 21.4287 6V18C21.4287 19.6569 20.0856 21 18.4287 21H6.42871C4.77186 21 3.42871 19.6569 3.42871 18V6C3.42871 4.34315 4.77186 3 6.42871 3H18.4287ZM18.4287 5H6.42871C5.87643 5 5.42871 5.44772 5.42871 6V18C5.42871 18.5523 5.87643 19 6.42871 19H18.4287C18.981 19 19.4287 18.5523 19.4287 18V6C19.4287 5.44772 18.981 5 18.4287 5ZM8.42871 10C8.94154 10 9.36422 10.386 9.42198 10.8834L9.42871 11V16C9.42871 16.5523 8.98099 17 8.42871 17C7.91588 17 7.4932 16.614 7.43544 16.1166L7.42871 16V11C7.42871 10.4477 7.87643 10 8.42871 10ZM11.4287 9C11.92 9 12.3285 9.35427 12.4128 9.82128C12.615 9.70435 12.8237 9.59892 13.0354 9.50837C13.7026 9.22295 14.7019 9.06594 15.6036 9.34949C16.0763 9.4981 16.5519 9.77907 16.9045 10.2556C17.2192 10.681 17.3886 11.1984 17.4224 11.7793L17.4287 12V16C17.4287 16.5522 16.981 17 16.4287 17C15.9159 17 15.4932 16.6139 15.4354 16.1166L15.4287 16V12C15.4287 11.6707 15.3488 11.5157 15.2967 11.4451C15.243 11.3726 15.1561 11.3053 15.0038 11.2574C14.6555 11.1479 14.1548 11.2048 13.822 11.3472C13.321 11.5615 12.8634 11.8971 12.5526 12.2083L12.4287 12.3398V16C12.4287 16.5523 11.981 17 11.4287 17C10.9159 17 10.4932 16.614 10.4354 16.1166L10.4287 16V10C10.4287 9.44772 10.8764 9 11.4287 9ZM8.42871 7C8.98099 7 9.42871 7.44772 9.42871 8C9.42871 8.55228 8.98099 9 8.42871 9C7.87643 9 7.42871 8.55228 7.42871 8C7.42871 7.44772 7.87643 7 8.42871 7Z" fill="white"/>
</svg>
