<svg width="43" height="43" viewBox="0 0 43 43" fill="none" xmlns="http://www.w3.org/2000/svg">
<g clip-path="url(#clip0_150_223)">
<g clip-path="url(#clip1_150_223)">
<g clip-path="url(#clip2_150_223)">
<g clip-path="url(#clip3_150_223)">
<path fill-rule="evenodd" clip-rule="evenodd" d="M39.5704 20.2093C39.5321 20.217 39.4938 20.3013 39.4938 20.3472C39.4861 20.6536 39.4785 21.4656 39.4785 22.0171C39.4785 22.0325 39.5014 22.0631 39.5244 22.0631C39.6393 22.0707 39.9151 22.0784 40.1525 22.0784C40.4819 22.0784 40.6734 22.0325 40.7807 21.9865C41.0564 21.8486 41.1867 21.5499 41.1867 21.2205C41.1867 20.4775 40.6658 20.194 39.8921 20.194C39.8385 20.1864 39.6853 20.1864 39.5704 20.2093ZM41.547 23.6334C41.547 22.8751 40.9877 22.4538 39.9766 22.4538C39.9307 22.4538 39.609 22.4461 39.5323 22.4614C39.5093 22.4691 39.4787 22.4844 39.4787 22.5074C39.4787 23.0513 39.4711 23.9169 39.4941 24.2539C39.5093 24.3994 39.6166 24.6063 39.7469 24.6676C39.8847 24.7442 40.1988 24.7594 40.4132 24.7594C41.0184 24.7594 41.547 24.4225 41.547 23.6334ZM38.0079 19.7881C38.0844 19.7881 38.3143 19.811 38.9041 19.811C39.4633 19.811 39.9076 19.7957 40.4515 19.7957C41.1179 19.7957 42.0371 20.0332 42.0371 21.0289C42.0371 21.5192 41.6924 21.9099 41.2404 22.1014C41.2175 22.1091 41.2175 22.1243 41.2404 22.132C41.8839 22.2929 42.4508 22.6912 42.4508 23.4419C42.4508 24.1773 41.9911 24.6445 41.3247 24.9356C40.9187 25.1118 40.4131 25.1731 39.8999 25.1731C39.5092 25.1731 38.4599 25.1271 37.8777 25.1425C37.8164 25.1195 37.9313 24.8437 37.9849 24.7978C38.1228 24.7901 38.23 24.7824 38.3756 24.7365C38.5824 24.6829 38.6053 24.6216 38.636 24.3075C38.6514 24.0394 38.6514 23.0895 38.6514 22.4155C38.6514 21.4886 38.659 20.8604 38.6514 20.5541C38.6437 20.3166 38.5594 20.24 38.3909 20.194C38.2607 20.1711 38.0462 20.1404 37.87 20.1174C37.8317 20.0791 37.9619 19.8187 38.0079 19.7881ZM33.5878 24.5526C33.7717 24.6981 34.1317 24.7594 34.4535 24.7594C34.8671 24.7594 35.2807 24.6829 35.6791 24.3228C36.0851 23.9551 36.3685 23.3883 36.3685 22.4844C36.3685 21.6188 36.0391 20.914 35.365 20.5004C34.982 20.2629 34.4917 20.1634 33.9249 20.1634C33.7564 20.1634 33.5955 20.171 33.4959 20.217C33.4729 20.2323 33.4193 20.3013 33.4193 20.3395C33.404 20.4928 33.404 21.6724 33.404 22.3618C33.404 23.0742 33.404 24.07 33.4193 24.1849C33.4193 24.2998 33.4729 24.476 33.5878 24.5526ZM31.8491 19.7881C31.9947 19.7881 32.5538 19.811 32.822 19.811C33.3046 19.811 33.6492 19.7881 34.5608 19.7881C35.3268 19.7881 35.9703 19.9949 36.4299 20.3855C36.989 20.8682 37.2802 21.5346 37.2802 22.3466C37.2802 23.5032 36.7516 24.1697 36.223 24.5527C35.6945 24.9434 35.0051 25.1731 34.0246 25.1731C33.5038 25.1731 32.6075 25.1578 31.8645 25.1501H31.8568C31.8185 25.0812 31.9181 24.8131 31.9793 24.8055C32.1785 24.7825 32.2321 24.7748 32.3317 24.7365C32.4926 24.6752 32.5232 24.591 32.5463 24.3076C32.5692 23.779 32.5615 23.1432 32.5615 22.4232C32.5615 21.9099 32.5692 20.9064 32.5538 20.5847C32.5309 20.3167 32.416 20.2477 32.1862 20.2017C32.0713 20.1788 31.9181 20.1481 31.7036 20.1252C31.673 20.0715 31.8109 19.834 31.8491 19.7881Z" fill="#8E714E"/>
<path fill-rule="evenodd" clip-rule="evenodd" d="M22.5809 24.8514C22.3894 24.8284 22.2515 24.7978 22.0829 24.7212C22.06 24.7058 22.0217 24.6293 22.0217 24.5986C22.0063 24.3305 22.0063 23.5645 22.0063 23.0513C22.0063 22.6376 21.9374 22.2776 21.7612 22.0248C21.5544 21.7337 21.2557 21.5652 20.8727 21.5652C20.5356 21.5652 20.0836 21.795 19.7083 22.1168C19.7006 22.1244 19.6394 22.178 19.647 22.0937C19.647 22.0095 19.6624 21.841 19.67 21.7261C19.6777 21.6188 19.6164 21.5652 19.6164 21.5652C19.3713 21.6877 18.6819 21.8486 18.4291 21.8716C18.2453 21.9099 18.1993 22.0861 18.3908 22.1474H18.3985C18.6052 22.2086 18.7431 22.2776 18.8504 22.3465C18.927 22.4078 18.9193 22.4921 18.9193 22.561C18.927 23.1355 18.927 24.0164 18.904 24.499C18.8964 24.6905 18.8428 24.7594 18.7049 24.7901L18.7201 24.7824C18.6129 24.8054 18.5286 24.8284 18.3984 24.8437C18.3525 24.8896 18.3525 25.1348 18.3984 25.1884C18.4827 25.1884 18.927 25.1654 19.2947 25.1654C19.8003 25.1654 20.0607 25.1884 20.1909 25.1884C20.2445 25.1272 20.2599 24.8973 20.2292 24.8437C20.0836 24.836 19.9764 24.8208 19.8769 24.7901C19.739 24.7594 19.7006 24.6905 19.693 24.5296C19.6777 24.1236 19.6777 23.2658 19.6777 22.6836C19.6777 22.5227 19.7236 22.4461 19.7696 22.4001C19.9458 22.247 20.2292 22.1397 20.482 22.1397C20.7271 22.1397 20.888 22.2163 21.0105 22.3159C21.179 22.4537 21.2327 22.6529 21.2557 22.7985C21.2939 23.1279 21.2787 23.779 21.2787 24.3458C21.2787 24.6522 21.2557 24.7288 21.1408 24.7671C21.0872 24.7901 20.9493 24.8208 20.7884 24.836C20.7348 24.8896 20.7501 25.1272 20.7884 25.1808C21.0105 25.1808 21.271 25.1578 21.654 25.1578C22.1289 25.1578 22.4353 25.1808 22.5579 25.1808C22.5962 25.1348 22.6115 24.9127 22.5808 24.8514H22.5809ZM24.7027 21.9253C24.2967 21.9253 24.0439 22.2393 24.0439 22.7295C24.0439 23.2274 24.266 23.8019 24.8942 23.8019C25.0014 23.8019 25.2006 23.756 25.2925 23.6488C25.4381 23.5109 25.5377 23.2351 25.5377 22.944C25.5377 22.3083 25.2236 21.9253 24.7027 21.9253ZM24.6489 25.311C24.4958 25.311 24.3885 25.3569 24.3196 25.3953C23.9978 25.602 23.8523 25.8012 23.8523 26.0387C23.8523 26.2608 23.9365 26.437 24.1204 26.5902C24.3425 26.7817 24.6489 26.8737 25.0396 26.8737C25.8209 26.8737 26.1657 26.4523 26.1657 26.0387C26.1657 25.7476 26.0201 25.5561 25.7214 25.4489C25.5069 25.3569 25.1162 25.311 24.6489 25.311ZM24.7026 27.3026C24.2353 27.3026 23.8983 27.203 23.6072 26.9809C23.3238 26.7664 23.2012 26.4447 23.2012 26.2226C23.2012 26.1613 23.2166 25.9927 23.3545 25.8396C23.4387 25.7476 23.6225 25.5714 24.0592 25.2727C24.0744 25.265 24.0821 25.2574 24.0821 25.242C24.0821 25.2267 24.0668 25.2114 24.0515 25.2038C23.6914 25.0659 23.5842 24.8437 23.5535 24.7212V24.7058C23.546 24.6599 23.5306 24.6139 23.5996 24.5679C23.6532 24.5296 23.7298 24.4837 23.814 24.4301C23.9442 24.3535 24.0821 24.2692 24.1664 24.2003C24.1817 24.1849 24.1817 24.1697 24.1817 24.1543C24.1817 24.139 24.1664 24.1236 24.1511 24.116C23.6149 23.9398 23.3468 23.5415 23.3468 22.944C23.3468 22.5534 23.5229 22.201 23.837 21.9789C24.0515 21.8103 24.5877 21.6035 24.9401 21.6035H24.9631C25.3231 21.6111 25.5222 21.6877 25.8056 21.7874C25.9588 21.841 26.1044 21.8639 26.3036 21.8639C26.6023 21.8639 26.7325 21.772 26.8397 21.6648C26.8474 21.6801 26.8627 21.7184 26.8704 21.818C26.8781 21.9176 26.8474 22.0631 26.7708 22.1704C26.7095 22.2546 26.5717 22.3159 26.4338 22.3159H26.3955C26.2576 22.3006 26.1963 22.2852 26.1963 22.2852L26.1657 22.3006C26.158 22.3159 26.1657 22.3312 26.1734 22.3542L26.181 22.3695C26.1963 22.4385 26.227 22.6452 26.227 22.6989C26.227 23.327 25.9742 23.6027 25.7061 23.8096C25.4456 24.0011 25.1469 24.1236 24.8098 24.1543C24.8022 24.1543 24.7716 24.1543 24.7026 24.162C24.6643 24.162 24.6107 24.1697 24.603 24.1697H24.5953C24.5341 24.1849 24.3809 24.2615 24.3809 24.3918C24.3809 24.5066 24.4498 24.6445 24.7792 24.6675C24.8481 24.6752 24.9171 24.6752 24.9937 24.6829C25.4303 24.7135 25.9742 24.7518 26.227 24.836C26.5793 24.9663 26.8015 25.2803 26.8015 25.6557C26.8015 26.2226 26.3955 26.7511 25.7214 27.0804C25.392 27.226 25.0626 27.3026 24.7026 27.3026ZM29.0687 21.9635C28.9078 21.9635 28.7623 22.0018 28.655 22.0784C28.3563 22.2622 28.2031 22.63 28.2031 23.1661C28.2031 24.1697 28.7086 24.8744 29.4287 24.8744C29.6432 24.8744 29.8117 24.8131 29.9573 24.6905C30.1794 24.5066 30.2943 24.139 30.2943 23.6258C30.2943 22.63 29.7964 21.9635 29.0687 21.9635ZM29.2067 25.242C27.9045 25.242 27.4372 24.2845 27.4372 23.3882C27.4372 22.7601 27.69 22.2775 28.1955 21.9328C28.5556 21.7107 28.9846 21.5881 29.3676 21.5881C30.3633 21.5881 31.0605 22.3005 31.0605 23.327C31.0605 24.024 30.7847 24.5755 30.2561 24.9126C30.0033 25.0811 29.5667 25.242 29.2067 25.242H29.2067ZM15.5566 21.9635C15.3957 21.9635 15.2502 22.0018 15.1429 22.0784C14.8442 22.2622 14.691 22.63 14.691 23.1661C14.691 24.1697 15.1965 24.8744 15.9166 24.8744C16.1311 24.8744 16.2996 24.8131 16.4452 24.6905C16.6673 24.5066 16.7822 24.139 16.7822 23.6258C16.7822 22.63 16.2919 21.9635 15.5566 21.9635ZM15.6943 25.242C14.3921 25.242 13.9248 24.2845 13.9248 23.3882C13.9248 22.7601 14.1776 22.2775 14.6831 21.9328C15.0432 21.7107 15.4721 21.5881 15.8551 21.5881C16.851 21.5881 17.548 22.3005 17.548 23.327C17.548 24.024 17.2722 24.5755 16.7437 24.9126C16.4986 25.0811 16.062 25.242 15.6943 25.242ZM6.93878 25.1654C6.92344 25.1425 6.9081 25.0735 6.91577 24.9893C6.91577 24.928 6.93111 24.8896 6.93878 24.8744C7.0996 24.8514 7.18389 24.8284 7.27577 24.8054C7.429 24.7671 7.49027 24.6829 7.49794 24.4914C7.52095 24.0318 7.52095 23.1585 7.51328 22.5534V22.538C7.51328 22.4691 7.51328 22.3848 7.429 22.3235C7.30644 22.247 7.16088 22.178 6.96938 22.1244C6.90043 22.1014 6.85449 22.0631 6.86216 22.0171C6.86216 21.9712 6.9081 21.9176 7.00772 21.9022C7.2605 21.8792 7.91922 21.7184 8.17966 21.6035C8.195 21.6188 8.21801 21.6648 8.21801 21.7261L8.21034 21.8103C8.20267 21.8946 8.195 21.9942 8.195 22.0937C8.195 22.1244 8.22567 22.1474 8.25628 22.1474C8.27161 22.1474 8.28695 22.1397 8.30229 22.132C8.79251 21.749 9.23679 21.6111 9.46656 21.6111C9.84196 21.6111 10.133 21.7874 10.3552 22.155C10.3705 22.178 10.3858 22.1856 10.4088 22.1856C10.4241 22.1856 10.4471 22.178 10.4547 22.1627C10.9067 21.818 11.3586 21.6111 11.6574 21.6111C12.3697 21.6111 12.7911 22.1397 12.7911 23.0359C12.7911 23.2887 12.7911 23.6181 12.7834 23.9169C12.7834 24.1849 12.7758 24.4301 12.7758 24.6063C12.7758 24.6445 12.8294 24.7671 12.9136 24.7901C13.0209 24.8437 13.1664 24.8667 13.3579 24.8973H13.3656C13.3809 24.9509 13.3503 25.1501 13.3197 25.1884C13.2736 25.1884 13.2047 25.1884 13.1282 25.1808C12.9826 25.1731 12.7758 25.1654 12.546 25.1654C12.071 25.1654 11.8259 25.1731 11.5884 25.1884C11.5731 25.1272 11.5655 24.9433 11.5884 24.8973C11.7263 24.8744 11.7952 24.8514 11.8795 24.8284C12.0328 24.7824 12.071 24.7135 12.0787 24.5143C12.0787 24.3688 12.1093 23.1279 12.0634 22.8291C12.0174 22.5227 11.7876 22.1627 11.282 22.1627C11.0905 22.1627 10.7918 22.2393 10.5007 22.4614C10.4854 22.4767 10.4701 22.515 10.4701 22.538V22.5457C10.5007 22.7065 10.5007 22.8904 10.5007 23.1738V23.6717C10.5007 24.0164 10.493 24.3381 10.5007 24.5833C10.5007 24.7518 10.6003 24.7901 10.6846 24.8208C10.7305 24.8284 10.7611 24.836 10.7995 24.8437C10.8684 24.859 10.9374 24.8744 11.0446 24.8973C11.0599 24.928 11.0599 25.0275 11.0369 25.1118C11.0292 25.1578 11.0139 25.1808 11.0063 25.1884C10.7459 25.1808 10.4777 25.1731 10.0871 25.1731C9.97219 25.1731 9.77302 25.1808 9.60445 25.1808C9.46656 25.1808 9.33634 25.1884 9.25979 25.1884C9.25212 25.1731 9.23679 25.1195 9.23679 25.0352C9.23679 24.9663 9.25212 24.9127 9.26746 24.8973C9.30573 24.8896 9.33634 24.882 9.37468 24.882C9.46656 24.8667 9.54317 24.8514 9.61979 24.836C9.75001 24.7978 9.79595 24.7288 9.80362 24.5603C9.82663 24.1773 9.84956 23.0819 9.79595 22.8061C9.70407 22.3619 9.45129 22.1397 9.04529 22.1397C8.80785 22.1397 8.50906 22.2546 8.26395 22.4385C8.22567 22.4691 8.195 22.5457 8.195 22.6146V23.0666C8.195 23.6181 8.195 24.3075 8.20267 24.6063C8.21034 24.6981 8.24094 24.8054 8.41718 24.8437C8.45545 24.8514 8.51672 24.8667 8.59334 24.8744L8.73123 24.8973C8.74657 24.9433 8.7389 25.1272 8.70822 25.1884C8.63161 25.1884 8.53973 25.1808 8.43244 25.1808C8.27161 25.1731 8.06478 25.1654 7.835 25.1654C7.56689 25.1654 7.37539 25.1731 7.22216 25.1808C7.11494 25.1654 7.03066 25.1654 6.93878 25.1654Z" fill="#442D22"/>
<g clip-path="url(#clip4_150_223)">
<path fill-rule="evenodd" clip-rule="evenodd" d="M2.90964 27.0039L2.59558 26.8966C2.59558 26.8966 2.63392 25.2956 2.05942 25.1807C1.67642 24.7365 2.1207 6.3369 3.49948 25.1195C3.49948 25.1195 3.02459 25.3569 2.94031 25.7629C2.84836 26.1613 2.90964 27.0039 2.90964 27.0039Z" fill="white"/>
<path fill-rule="evenodd" clip-rule="evenodd" d="M2.90964 27.0039L2.59558 26.8966C2.59558 26.8966 2.63392 25.2956 2.05942 25.1807C1.67642 24.7365 2.1207 6.3369 3.49948 25.1195C3.49948 25.1195 3.02459 25.3569 2.94031 25.7629C2.84836 26.1613 2.90964 27.0039 2.90964 27.0039Z" fill="#A6A385"/>
<path fill-rule="evenodd" clip-rule="evenodd" d="M3.07833 25.4565C3.07833 25.4565 5.82828 23.6487 5.18483 19.8876C4.56439 17.153 3.10126 16.2567 2.94043 15.912C2.76427 15.6669 2.5957 15.2379 2.5957 15.2379L2.71066 22.8444C2.71066 22.852 2.47315 25.1731 3.07833 25.4565Z" fill="white"/>
<path fill-rule="evenodd" clip-rule="evenodd" d="M3.07833 25.4565C3.07833 25.4565 5.82828 23.6487 5.18483 19.8876C4.56439 17.153 3.10126 16.2567 2.94043 15.912C2.76427 15.6669 2.5957 15.2379 2.5957 15.2379L2.71066 22.8444C2.71066 22.852 2.47315 25.1731 3.07833 25.4565Z" fill="#499D4A"/>
<path fill-rule="evenodd" clip-rule="evenodd" d="M2.43479 25.5563C2.43479 25.5563 -0.146668 23.7945 0.00656122 20.6922C0.15205 17.5898 1.97518 16.0655 2.32751 15.7897C2.55735 15.5446 2.56502 15.4526 2.58036 15.2075C2.74118 15.5522 2.71058 20.3628 2.73351 20.9296C2.80246 23.1127 2.61096 25.1427 2.43479 25.5563Z" fill="white"/>
<path fill-rule="evenodd" clip-rule="evenodd" d="M2.43479 25.5563C2.43479 25.5563 -0.146668 23.7945 0.00656122 20.6922C0.15205 17.5898 1.97518 16.0655 2.32751 15.7897C2.55735 15.5446 2.56502 15.4526 2.58036 15.2075C2.74118 15.5522 2.71058 20.3628 2.73351 20.9296C2.80246 23.1127 2.61096 25.1427 2.43479 25.5563Z" fill="#58AA50"/>
</g>
</g>
</g>
</g>
</g>
<defs>
<clipPath id="clip0_150_223">
<rect width="42.5" height="42.5" fill="white"/>
</clipPath>
<clipPath id="clip1_150_223">
<rect width="42.5" height="12.1191" fill="white" transform="translate(0 15.1904)"/>
</clipPath>
<clipPath id="clip2_150_223">
<rect width="42.5" height="12.1191" fill="white" transform="translate(0 15.1904)"/>
</clipPath>
<clipPath id="clip3_150_223">
<rect width="42.5" height="12.1191" fill="white" transform="translate(0 15.1904)"/>
</clipPath>
<clipPath id="clip4_150_223">
<rect width="5.3125" height="11.8701" fill="white" transform="translate(0 15.1904)"/>
</clipPath>
</defs>
</svg>
