<svg width="43" height="43" viewBox="0 0 43 43" fill="none" xmlns="http://www.w3.org/2000/svg">
<path d="M24.1399 8.31534C22.7384 6.66119 21.5324 4.97076 21.2863 4.6275C21.2811 4.62028 21.2743 4.61439 21.2664 4.61033C21.2586 4.60627 21.2498 4.60416 21.241 4.60416C21.2321 4.60416 21.2233 4.60627 21.2155 4.61033C21.2076 4.61439 21.2008 4.62028 21.1956 4.6275C20.9508 4.97465 19.7448 6.66507 18.3459 8.31923C6.33672 23.6108 20.2384 33.9308 20.2384 33.9308L20.3511 34.0098C20.4573 35.6057 20.7189 37.8958 20.7189 37.8958H21.7643C21.7643 37.8958 22.0233 35.6108 22.1309 34.0098L22.2448 33.9204C22.2448 33.9204 36.1465 23.6108 24.1399 8.31534ZM21.2422 33.7041C21.2422 33.7041 20.6192 33.173 20.4508 32.9062V32.8777L21.2047 16.2247C21.2064 16.2155 21.2112 16.2071 21.2185 16.2011C21.2257 16.195 21.2348 16.1917 21.2442 16.1917C21.2536 16.1917 21.2627 16.195 21.2699 16.2011C21.2771 16.2071 21.282 16.2155 21.2837 16.2247L22.0402 32.8802V32.9087C21.8718 33.1678 21.2487 33.7067 21.2487 33.7067" fill="#00684A"/>
</svg>
