<svg width="43" height="43" viewBox="0 0 43 43" fill="none" xmlns="http://www.w3.org/2000/svg">
<path d="M33.2302 33.1065C34.697 32.4861 36.4459 32.2603 38.7024 32.3166C38.6389 31.8944 37.8325 31.3929 37.2418 31.0255C37.0435 30.9022 36.8695 30.794 36.7561 30.7089C35.8534 30.0602 34.8943 29.383 33.9354 28.7909C33.6265 28.6022 33.1817 28.4447 32.7537 28.2931C32.4783 28.1956 32.2099 28.1005 31.9891 28.0012C31.7634 27.9092 31.4561 27.8173 31.1243 27.718C30.3361 27.4822 29.4099 27.205 29.112 26.7883C28.345 25.7912 27.8098 24.5855 27.2753 23.3815C27.2201 23.2571 27.1649 23.1327 27.1094 23.0086C26.8296 22.369 26.5184 21.7169 26.2054 21.061C25.8558 20.3286 25.504 19.5915 25.1914 18.8622C25.0552 18.5652 24.9516 18.2843 24.8497 18.0079C24.7193 17.6544 24.5916 17.3081 24.4017 16.9442C22.3424 12.9672 19.2963 9.63864 15.6012 7.29755C14.3882 6.53593 13.0345 5.83059 11.5394 5.35123C11.0828 5.21432 10.577 5.19228 10.0663 5.17002C9.63035 5.15103 9.19081 5.13188 8.77517 5.04103H8.18273C7.84073 4.94602 7.53712 4.67178 7.25469 4.41667C7.11786 4.29308 6.98601 4.17399 6.85717 4.08193C5.98266 3.48967 5.10833 3.09453 4.06466 2.67161C3.69801 2.50244 2.65434 2.10748 2.28769 2.41786C2.0619 2.47431 1.94918 2.55889 1.89273 2.78451C1.66711 3.12302 1.86477 3.6307 2.00563 3.9409C2.28521 4.53736 2.63873 4.97373 3.001 5.42088C3.18697 5.65042 3.37524 5.88281 3.55699 6.14115C3.6438 6.26368 3.7343 6.38898 3.82632 6.51638C4.24265 7.09276 4.69008 7.71221 4.96731 8.31291C5.35852 9.15565 5.63736 10.0465 5.91519 10.9342C6.15814 11.7104 6.40031 12.4841 6.71615 13.2209C6.9699 13.8134 7.36486 14.4902 7.73151 15.0262C7.8465 15.183 7.99642 15.3244 8.14818 15.4674C8.40579 15.7103 8.66873 15.9582 8.77518 16.2955C9.04949 16.7526 8.54588 18.0617 8.2399 18.8571C8.16827 19.0432 8.10748 19.2013 8.07002 19.3136C7.33655 21.6264 7.47758 24.842 8.32377 26.8446C8.35402 26.9152 8.38404 26.9869 8.41427 27.0591C8.72248 27.7952 9.0533 28.5853 9.87514 28.7909C9.9007 28.7654 9.90314 28.7572 9.90864 28.7533C9.91527 28.7485 9.92635 28.75 9.98803 28.7345C10.0293 28.4103 10.0644 28.0885 10.0991 27.7713C10.2301 26.5706 10.3541 25.4347 10.7778 24.4754C10.9797 23.98 11.3127 23.5801 11.6373 23.1903C11.8117 22.9808 11.9838 22.7742 12.1317 22.5574C12.3107 22.6647 12.3761 22.9084 12.4433 23.1586C12.4819 23.3027 12.5212 23.449 12.5831 23.5727C12.6097 23.6362 12.6365 23.7002 12.6634 23.7645C13.0074 24.5859 13.3774 25.4697 13.7959 26.2805C14.7267 28.0858 15.7705 29.8344 16.9551 31.4141C17.3498 31.9782 17.9142 32.5988 18.4218 33.1065C18.499 33.1741 18.5795 33.2317 18.6588 33.2885C18.8112 33.3976 18.9592 33.5036 19.0706 33.6706H19.127V33.7554C18.5915 33.559 18.1803 33.1366 17.7789 32.7243C17.546 32.4851 17.3164 32.2493 17.0678 32.063C15.7985 31.1039 14.2755 29.6652 13.4009 28.2832C13.1255 27.69 12.8342 27.1126 12.5389 26.5272C12.4411 26.3334 12.3428 26.1386 12.2446 25.9421C12.2446 25.9421 12.2447 25.9138 12.2446 25.8857C12.1368 26.0295 12.1206 26.1731 12.1011 26.3461C12.09 26.4446 12.0778 26.5526 12.0471 26.6754C11.9425 27.0776 11.8907 27.4958 11.8407 27.9C11.7151 28.9132 11.6006 29.8383 10.6932 30.2013C9.25473 30.7937 8.18274 29.242 7.73151 28.537C6.29305 26.1959 5.89809 22.247 6.91345 19.0597C6.992 18.8144 7.04666 18.552 7.10115 18.2903C7.2033 17.7999 7.30491 17.3121 7.56234 16.9442C7.50575 16.6052 7.31094 16.4296 7.12056 16.258C7.02581 16.1726 6.93216 16.0882 6.85718 15.9851C6.46222 15.4493 6.12389 14.8287 5.81351 14.2365C5.36252 13.356 5.00976 12.3447 4.66789 11.3647C4.56067 11.0573 4.45451 10.753 4.34673 10.4567C4.25045 10.2092 4.18774 9.96159 4.12586 9.71728C4.06082 9.4605 3.9967 9.20736 3.8955 8.9618C3.62886 8.38406 3.18733 7.80642 2.77742 7.27015C2.66692 7.1256 2.55872 6.98405 2.45686 6.84631C2.34698 6.68862 2.20149 6.50585 2.0393 6.30211C1.244 5.30303 0.0472923 3.7997 0.679898 2.27683C1.8646 -0.628407 6.01117 1.57149 7.61862 2.58703C7.77937 2.69038 7.94946 2.84042 8.12509 2.99533C8.38099 3.22106 8.64864 3.45715 8.91623 3.57426C9.26888 3.58842 9.62158 3.60957 9.97425 3.63072C10.3268 3.65186 10.6793 3.673 11.0317 3.68715C11.1472 3.71417 11.262 3.74077 11.3761 3.76719C12.5722 4.04416 13.6893 4.30287 14.6421 4.84355C19.4937 7.69251 22.6528 10.5977 25.5581 15.3928C25.9525 16.0382 26.2216 16.7177 26.4956 17.4098C26.6528 17.8066 26.8116 18.2075 26.9965 18.6084C27.7017 20.2444 28.4918 21.9647 29.3095 23.5163C29.4123 23.7219 29.5084 23.9343 29.6048 24.147C29.8521 24.6929 30.1006 25.2416 30.466 25.6882C30.5974 25.876 30.8913 25.9761 31.173 26.0721C31.3145 26.1204 31.4529 26.1675 31.566 26.2242C31.9308 26.4121 32.326 26.5827 32.7243 26.7547C33.3422 27.0214 33.9678 27.2915 34.4995 27.6345C36.1355 28.6499 37.7151 29.8626 39.1536 31.1039C39.4444 31.3641 39.6854 31.6823 39.9261 32.0001C40.129 32.2681 40.3318 32.5358 40.5639 32.7682V33.0219C40.1127 33.1629 39.6613 33.304 39.2101 33.4169C38.7191 33.5431 38.256 33.5925 37.7965 33.6416C37.3322 33.6912 36.8715 33.7405 36.3894 33.8681C36.3286 33.8855 36.2664 33.9034 36.2029 33.9218C35.6477 34.082 35 34.2689 34.4431 34.3195C34.4712 34.3476 34.4995 34.3758 34.4995 34.3758C34.7714 35.1497 35.9274 35.815 36.8748 36.3602C37.2051 36.5503 37.51 36.7258 37.7433 36.8862C38.8434 37.676 39.8588 38.6351 40.6768 39.735C40.8175 39.8756 40.9581 40.0093 41.0988 40.1429C41.2402 40.2773 41.3817 40.4116 41.523 40.5531C41.6185 40.6896 41.6811 40.846 41.7425 40.9999C41.808 41.1637 41.8724 41.3247 41.9743 41.4557V41.5403C41.7275 41.4522 41.5579 41.2759 41.3896 41.101C41.2886 40.9961 41.1881 40.8916 41.0716 40.807C40.8059 40.6259 40.5403 40.4292 40.2747 40.2325C39.9199 39.9697 39.5651 39.7069 39.2101 39.4813C38.6643 39.1365 38.0746 38.8649 37.482 38.592C36.9108 38.329 36.3369 38.0647 35.797 37.7324C35.1766 37.3375 34.5841 36.8862 33.9919 36.435C33.4559 36.04 32.8638 35.2782 32.5251 34.7143C32.4397 34.5802 32.386 34.4356 32.3343 34.2964C32.2663 34.1135 32.2019 33.9398 32.0737 33.8117C32.1159 33.4109 32.5052 33.3098 32.8758 33.2135C33.0007 33.1811 33.1236 33.1492 33.2302 33.1065Z" fill="#00546B"/>
<path d="M8.77505 7.94626C9.11357 7.86167 9.4519 7.80504 9.93145 7.80504C10.0208 7.89451 10.1324 7.97064 10.2451 8.04752C10.4167 8.16466 10.5909 8.28353 10.6931 8.45394C10.7557 8.54168 10.7961 8.62941 10.8365 8.71715C10.887 8.82689 10.9375 8.93664 11.0316 9.04638C11.0316 9.72323 10.8343 10.1745 10.4391 10.4567C10.4391 10.4567 10.411 10.4848 10.3829 10.5132C10.2701 10.2878 10.1645 10.0624 10.0589 9.83705C9.95295 9.61104 9.84703 9.38505 9.73396 9.1591C9.62413 9.00537 9.49723 8.86444 9.36987 8.72301C9.17018 8.50124 8.96937 8.27823 8.8315 8.00271H8.77505V7.94626Z" fill="#00546B"/>
</svg>
