<svg width="43" height="43" viewBox="0 0 43 43" fill="none" xmlns="http://www.w3.org/2000/svg">
<g clip-path="url(#clip0_150_239)">
<path fill-rule="evenodd" clip-rule="evenodd" d="M21.0199 34.2423C20.8758 34.2423 20.7413 34.2039 20.6164 34.1366L19.3387 33.3777C19.1466 33.272 19.2427 33.2336 19.3003 33.2144C19.5597 33.1279 19.6077 33.1087 19.8767 32.955C19.9055 32.9358 19.944 32.9454 19.9728 32.9646L20.9527 33.5506C20.9911 33.5698 21.0391 33.5698 21.0679 33.5506L24.901 31.3315C24.9394 31.3122 24.9587 31.2738 24.9587 31.2258V26.7971C24.9587 26.7491 24.9394 26.7106 24.901 26.6914L21.0679 24.4819C21.0295 24.4627 20.9815 24.4627 20.9527 24.4819L17.1196 26.6914C17.0812 26.7106 17.062 26.7587 17.062 26.7971V31.2258C17.062 31.2642 17.0812 31.3122 17.1196 31.3315L18.1667 31.9367C18.7335 32.2249 19.089 31.8886 19.089 31.5524V27.1814C19.089 27.1237 19.137 27.0661 19.2043 27.0661H19.6942C19.7518 27.0661 19.8095 27.1141 19.8095 27.1814V31.5524C19.8095 32.3113 19.3964 32.7532 18.6759 32.7532C18.4549 32.7532 18.282 32.7532 17.7921 32.5131L16.7834 31.9367C16.5336 31.7926 16.3799 31.5236 16.3799 31.2354V26.8067C16.3799 26.5185 16.5336 26.2495 16.7834 26.1054L20.6164 23.8863C20.8566 23.7518 21.1832 23.7518 21.4234 23.8863L25.2565 26.1054C25.5062 26.2495 25.6599 26.5185 25.6599 26.8067V31.2354C25.6599 31.5236 25.5062 31.7926 25.2565 31.9367L21.4234 34.1558C21.2985 34.2135 21.1544 34.2423 21.0199 34.2423ZM22.2015 31.197C20.5204 31.197 20.1745 30.4284 20.1745 29.7752C20.1745 29.7175 20.2226 29.6599 20.2898 29.6599H20.7894C20.847 29.6599 20.895 29.6983 20.895 29.756C20.9719 30.2651 21.1928 30.5149 22.2111 30.5149C23.0181 30.5149 23.3639 30.3324 23.3639 29.9001C23.3639 29.6503 23.2679 29.4678 22.0094 29.3429C20.9623 29.2372 20.309 29.0066 20.309 28.1709C20.309 27.3927 20.9623 26.9316 22.0574 26.9316C23.2871 26.9316 23.8923 27.3543 23.9692 28.2765C23.9692 28.3053 23.9596 28.3342 23.9403 28.363C23.9211 28.3822 23.8923 28.4014 23.8635 28.4014H23.3639C23.3159 28.4014 23.2679 28.363 23.2583 28.315C23.143 27.7866 22.8452 27.6137 22.0574 27.6137C21.1736 27.6137 21.0679 27.9211 21.0679 28.1516C21.0679 28.4302 21.1928 28.5167 22.3841 28.6704C23.5657 28.8241 24.1229 29.0451 24.1229 29.8712C24.1133 30.7166 23.4216 31.197 22.2015 31.197Z" fill="#539E43"/>
<path fill-rule="evenodd" clip-rule="evenodd" d="M9.12636 16.9215C9.12636 16.7485 9.03029 16.5852 8.87659 16.4988L4.80335 14.1547C4.7361 14.1163 4.65925 14.0971 4.58239 14.0875H4.54397C4.46711 14.0875 4.39026 14.1163 4.32301 14.1547L0.249774 16.4988C0.0960669 16.5852 0 16.7485 0 16.9215L0.00960669 23.2235C0.00960669 23.3099 0.0576402 23.3964 0.134494 23.4348C0.211347 23.4828 0.307414 23.4828 0.374661 23.4348L2.79555 22.0514C2.94925 21.965 3.04532 21.8017 3.04532 21.6287V18.6795C3.04532 18.5066 3.14139 18.3433 3.2951 18.2568L4.32301 17.6612C4.39987 17.6131 4.48633 17.5939 4.57279 17.5939C4.65925 17.5939 4.74571 17.6131 4.81295 17.6612L5.84087 18.2568C5.99458 18.3433 6.09064 18.5066 6.09064 18.6795V21.6287C6.09064 21.8017 6.18671 21.965 6.34042 22.0514L8.7613 23.4348C8.83816 23.4828 8.93423 23.4828 9.01108 23.4348C9.08793 23.3964 9.13597 23.3099 9.13597 23.2235L9.12636 16.9215Z" fill="#333333"/>
<path fill-rule="evenodd" clip-rule="evenodd" d="M28.7047 8.24659C28.6279 8.20817 28.5318 8.20817 28.4646 8.24659C28.3877 8.29463 28.3397 8.37148 28.3397 8.45794V14.7023C28.3397 14.7599 28.3108 14.8176 28.2532 14.856C28.1956 14.8848 28.1379 14.8848 28.0803 14.856L27.062 14.27C26.9083 14.1835 26.7257 14.1835 26.572 14.27L22.4988 16.6236C22.3451 16.7101 22.249 16.8734 22.249 17.0463V21.744C22.249 21.9169 22.3451 22.0802 22.4988 22.1667L26.572 24.5203C26.7257 24.6068 26.9083 24.6068 27.062 24.5203L31.1352 22.1667C31.2889 22.0802 31.385 21.9169 31.385 21.744V10.0334C31.385 9.85091 31.2889 9.6876 31.1352 9.60114L28.7047 8.24659ZM28.3299 20.1973C28.3299 20.2453 28.3107 20.2838 28.2722 20.303L26.8793 21.11C26.8408 21.1292 26.7928 21.1292 26.7544 21.11L25.3614 20.303C25.323 20.2838 25.3038 20.2357 25.3038 20.1973V18.5834C25.3038 18.5354 25.323 18.4969 25.3614 18.4777L26.7544 17.6708C26.7928 17.6515 26.8408 17.6515 26.8793 17.6708L28.2722 18.4777C28.3107 18.4969 28.3299 18.545 28.3299 18.5834V20.1973Z" fill="#333333"/>
<path fill-rule="evenodd" clip-rule="evenodd" d="M42.2597 18.545C42.4134 18.4585 42.4999 18.2952 42.4999 18.1223V16.9791C42.4999 16.8061 42.4038 16.6428 42.2597 16.5564L38.2153 14.2123C38.0616 14.1259 37.8791 14.1259 37.7254 14.2123L33.6521 16.566C33.4984 16.6524 33.4023 16.8158 33.4023 16.9887V21.6863C33.4023 21.8593 33.4984 22.0226 33.6521 22.109L37.6965 24.4146C37.8502 24.5011 38.0328 24.5011 38.1769 24.4146L40.6266 23.0505C40.7034 23.0121 40.7515 22.9256 40.7515 22.8391C40.7515 22.7527 40.7034 22.6662 40.6266 22.6278L36.5341 20.2742C36.4573 20.2261 36.4092 20.1493 36.4092 20.0628V18.593C36.4092 18.5065 36.4573 18.4201 36.5341 18.3816L37.8118 17.6515C37.8887 17.6035 37.9847 17.6035 38.0616 17.6515L39.3393 18.3816C39.4161 18.4297 39.4642 18.5065 39.4642 18.593V19.7458C39.4642 19.8323 39.5122 19.9187 39.5891 19.9571C39.6659 20.0052 39.762 20.0052 39.8388 19.9571L42.2597 18.545Z" fill="#333333"/>
<path fill-rule="evenodd" clip-rule="evenodd" d="M37.9082 18.3241C37.937 18.3049 37.9755 18.3049 38.0043 18.3241L38.7824 18.7756C38.8112 18.7948 38.8304 18.8236 38.8304 18.862V19.7651C38.8304 19.8035 38.8112 19.8323 38.7824 19.8515L38.0043 20.3031C37.9755 20.3223 37.937 20.3223 37.9082 20.3031L37.1301 19.8515C37.1012 19.8323 37.082 19.8035 37.082 19.7651V18.862C37.082 18.8236 37.1012 18.7948 37.1301 18.7756L37.9082 18.3241Z" fill="#539E43"/>
<path fill-rule="evenodd" clip-rule="evenodd" d="M15.9376 14.2315C15.7839 14.1451 15.6014 14.1451 15.4477 14.2315L11.4033 16.566C11.2495 16.6524 11.1631 16.8157 11.1631 16.9887V21.6671C11.1631 21.84 11.2592 22.0033 11.4033 22.0898L15.4477 24.4242C15.6014 24.5107 15.7839 24.5107 15.9376 24.4242L19.982 22.0898C20.1357 22.0033 20.2222 21.84 20.2222 21.6671V16.9887C20.2222 16.8157 20.1261 16.6524 19.982 16.566L15.9376 14.2315Z" fill="white"/>
<path fill-rule="evenodd" clip-rule="evenodd" d="M15.9376 14.2315C15.7839 14.1451 15.6014 14.1451 15.4477 14.2315L11.4033 16.566C11.2495 16.6524 11.1631 16.8157 11.1631 16.9887V21.6671C11.1631 21.84 11.2592 22.0033 11.4033 22.0898L15.4477 24.4242C15.6014 24.5107 15.7839 24.5107 15.9376 24.4242L19.982 22.0898C20.1357 22.0033 20.2222 21.84 20.2222 21.6671V16.9887C20.2222 16.8157 20.1261 16.6524 19.982 16.566L15.9376 14.2315Z" fill="url(#paint0_linear_150_239)"/>
<mask id="mask0_150_239" style="mask-type:alpha" maskUnits="userSpaceOnUse" x="11" y="14" width="10" height="11">
<path fill-rule="evenodd" clip-rule="evenodd" d="M15.9376 14.2315C15.7839 14.1451 15.6014 14.1451 15.4477 14.2315L11.4033 16.566C11.2495 16.6524 11.1631 16.8157 11.1631 16.9887V21.6671C11.1631 21.84 11.2592 22.0033 11.4033 22.0898L15.4477 24.4242C15.6014 24.5107 15.7839 24.5107 15.9376 24.4242L19.982 22.0898C20.1357 22.0033 20.2222 21.84 20.2222 21.6671V16.9887C20.2222 16.8157 20.1261 16.6524 19.982 16.566L15.9376 14.2315Z" fill="white"/>
</mask>
<g mask="url(#mask0_150_239)">
<path fill-rule="evenodd" clip-rule="evenodd" d="M19.9911 16.566L15.9275 14.2315C15.8891 14.2123 15.841 14.1931 15.8026 14.1835L11.249 21.9841C11.2875 22.0322 11.3355 22.0706 11.3835 22.0994L15.4471 24.4338C15.5624 24.5011 15.6969 24.5203 15.8218 24.4819L20.0968 16.662C20.068 16.6236 20.0295 16.5948 19.9911 16.566Z" fill="url(#paint1_linear_150_239)"/>
</g>
<mask id="mask1_150_239" style="mask-type:alpha" maskUnits="userSpaceOnUse" x="11" y="14" width="10" height="11">
<path fill-rule="evenodd" clip-rule="evenodd" d="M15.9376 14.2315C15.7839 14.1451 15.6014 14.1451 15.4477 14.2315L11.4033 16.566C11.2495 16.6524 11.1631 16.8157 11.1631 16.9887V21.6671C11.1631 21.84 11.2592 22.0033 11.4033 22.0898L15.4477 24.4242C15.6014 24.5107 15.7839 24.5107 15.9376 24.4242L19.982 22.0898C20.1357 22.0033 20.2222 21.84 20.2222 21.6671V16.9887C20.2222 16.8157 20.1261 16.6524 19.982 16.566L15.9376 14.2315Z" fill="white"/>
</mask>
<g mask="url(#mask1_150_239)">
<path fill-rule="evenodd" clip-rule="evenodd" d="M20.0013 22.0898C20.1166 22.0225 20.2031 21.9072 20.2415 21.7823L15.784 14.1738C15.6687 14.1546 15.5438 14.1642 15.4381 14.2315L11.4033 16.5563L15.7552 24.4914C15.8128 24.4818 15.88 24.4626 15.9377 24.4338L20.0013 22.0898Z" fill="url(#paint2_linear_150_239)"/>
<path fill-rule="evenodd" clip-rule="evenodd" d="M20.0012 22.0898L15.9472 24.4242C15.8895 24.4531 15.8319 24.4723 15.7646 24.4819L15.8415 24.626L20.3374 22.0226V21.9649L20.2222 21.7728C20.2029 21.9073 20.1165 22.0226 20.0012 22.0898Z" fill="url(#paint3_linear_150_239)"/>
<path fill-rule="evenodd" clip-rule="evenodd" d="M20.0012 22.0898L15.9472 24.4242C15.8895 24.4531 15.8319 24.4723 15.7646 24.4819L15.8415 24.626L20.3374 22.0226V21.9649L20.2222 21.7728C20.2029 21.9073 20.1165 22.0226 20.0012 22.0898Z" fill="url(#paint4_linear_150_239)"/>
</g>
</g>
<defs>
<linearGradient id="paint0_linear_150_239" x1="14.8191" y1="14.6596" x2="10.514" y2="19.8695" gradientUnits="userSpaceOnUse">
<stop stop-color="#41873F"/>
<stop offset="0.3288" stop-color="#418B3D"/>
<stop offset="0.6352" stop-color="#419637"/>
<stop offset="0.9319" stop-color="#3FA92D"/>
<stop offset="1" stop-color="#3FAE2A"/>
</linearGradient>
<linearGradient id="paint1_linear_150_239" x1="17.4682" y1="25.7174" x2="28.2371" y2="21.4152" gradientUnits="userSpaceOnUse">
<stop offset="0.1376" stop-color="#41873F"/>
<stop offset="0.4032" stop-color="#54A044"/>
<stop offset="0.7136" stop-color="#66B848"/>
<stop offset="0.9081" stop-color="#6CC04A"/>
</linearGradient>
<linearGradient id="paint2_linear_150_239" x1="11.0154" y1="24.7952" x2="20.374" y2="24.7952" gradientUnits="userSpaceOnUse">
<stop offset="0.0919165" stop-color="#6CC04A"/>
<stop offset="0.2864" stop-color="#66B848"/>
<stop offset="0.5968" stop-color="#54A044"/>
<stop offset="0.8624" stop-color="#41873F"/>
</linearGradient>
<linearGradient id="paint3_linear_150_239" x1="11.0153" y1="26.1269" x2="20.3739" y2="26.1269" gradientUnits="userSpaceOnUse">
<stop offset="0.0919165" stop-color="#6CC04A"/>
<stop offset="0.2864" stop-color="#66B848"/>
<stop offset="0.5968" stop-color="#54A044"/>
<stop offset="0.8624" stop-color="#41873F"/>
</linearGradient>
<linearGradient id="paint4_linear_150_239" x1="10.0508" y1="15.0496" x2="9.16846" y2="26.9254" gradientUnits="userSpaceOnUse">
<stop stop-color="#41873F"/>
<stop offset="0.3288" stop-color="#418B3D"/>
<stop offset="0.6352" stop-color="#419637"/>
<stop offset="0.9319" stop-color="#3FA92D"/>
<stop offset="1" stop-color="#3FAE2A"/>
</linearGradient>
<clipPath id="clip0_150_239">
<rect width="42.5" height="42.5" fill="white"/>
</clipPath>
</defs>
</svg>
