<svg width="44" height="43" viewBox="0 0 44 43" fill="none" xmlns="http://www.w3.org/2000/svg">
<g clip-path="url(#clip0_150_231)">
<path d="M35.9419 15.0801C35.4884 14.9283 35.0185 14.7848 34.5347 14.649C34.6142 14.3334 34.6872 14.022 34.7521 13.7158C35.8173 8.6887 35.1209 4.63881 32.7426 3.30541C30.4621 2.02686 26.7325 3.35996 22.9659 6.54692C22.6037 6.85337 22.2404 7.17783 21.8774 7.51788C21.6355 7.2929 21.3939 7.07548 21.153 6.86752C17.2055 3.45981 13.2486 2.02376 10.8727 3.36102C8.59436 4.64327 7.91966 8.45056 8.87853 13.2148C8.97112 13.675 9.07936 14.1449 9.20175 14.6227C8.64175 14.7773 8.10112 14.942 7.58383 15.1173C2.95572 16.6861 0 19.1447 0 21.6949C0 24.3288 3.17297 26.9706 7.99351 28.5725C8.37392 28.6989 8.76866 28.8184 9.17545 28.9319C9.04341 29.4486 8.92856 29.955 8.83215 30.449C7.91788 35.1305 8.63187 38.8479 10.9041 40.122C13.2511 41.4379 17.19 40.0853 21.0256 36.8258C21.3287 36.5681 21.633 36.2948 21.9378 36.0084C22.3328 36.3783 22.7272 36.7283 23.1195 37.0566C26.8347 40.1648 30.504 41.4199 32.7742 40.1422C35.1188 38.8226 35.8808 34.8293 34.8915 29.9708C34.816 29.5997 34.7281 29.2206 34.6293 28.8348C34.9059 28.7553 35.1775 28.6732 35.4423 28.5879C40.4537 26.9736 43.7143 24.3639 43.7143 21.6949C43.7143 19.1354 40.6632 16.6603 35.9419 15.0801ZM34.855 26.8645C34.6159 26.9415 34.3707 27.0158 34.1208 27.0879C33.5675 25.3851 32.8208 23.5745 31.9071 21.7037C32.7791 19.8776 33.4969 18.09 34.0346 16.3983C34.4818 16.5241 34.9158 16.6568 35.3341 16.7968C39.3793 18.1507 41.8468 20.1525 41.8468 21.6949C41.8468 23.3378 39.182 25.4706 34.855 26.8645ZM33.0596 30.3234C33.497 32.4717 33.5595 34.4141 33.2697 35.9326C33.0094 37.297 32.4858 38.2067 31.8384 38.571C30.4608 39.3462 27.5147 38.3385 24.3374 35.6803C23.9732 35.3756 23.6063 35.0503 23.2383 34.7059C24.47 33.3962 25.7011 31.8736 26.9026 30.1826C29.0158 30.0003 31.0124 29.7022 32.8229 29.2953C32.9121 29.645 32.9913 29.988 33.0596 30.3234ZM14.9032 38.437C13.5572 38.8992 12.4852 38.9124 11.8372 38.5491C10.4583 37.7759 9.88509 34.7912 10.667 30.7876C10.7566 30.3291 10.8632 29.8581 10.986 29.3766C12.7768 29.7616 14.7587 30.0386 16.877 30.2056C18.0866 31.8603 19.3532 33.3812 20.6296 34.7129C20.3507 34.9747 20.0729 35.2239 19.7967 35.4587C18.1007 36.9 16.401 37.9227 14.9032 38.437ZM8.59748 26.8545C6.46592 26.1462 4.70561 25.2256 3.499 24.221C2.41478 23.3183 1.86738 22.4221 1.86738 21.6949C1.86738 20.1473 4.24053 18.1734 8.19854 16.8318C8.67879 16.669 9.18152 16.5155 9.70325 16.3714C10.2503 18.1014 10.9678 19.9101 11.8338 21.7391C10.9566 23.5952 10.2289 25.4327 9.67648 27.1829C9.30454 27.079 8.9442 26.9696 8.59748 26.8545ZM10.7112 12.8661C9.88968 8.78425 10.4353 5.70501 11.8083 4.93233C13.2707 4.10919 16.5046 5.28281 19.913 8.2252C20.1309 8.41326 20.3496 8.6101 20.569 8.81375C19.2989 10.1397 18.0439 11.6492 16.845 13.2941C14.7891 13.4794 12.8211 13.777 11.0117 14.1755C10.898 13.7306 10.7972 13.2935 10.7112 12.8661ZM29.5676 17.3929C29.135 16.6665 28.691 15.9573 28.2383 15.2675C29.633 15.4389 30.9693 15.6665 32.2243 15.9449C31.8475 17.1188 31.3779 18.3463 30.8251 19.6045C30.4286 18.8726 30.0092 18.1347 29.5676 17.3929ZM21.878 10.1113C22.7394 11.0186 23.602 12.0315 24.4504 13.1305C23.5954 13.0913 22.7299 13.0708 21.8571 13.0708C20.9927 13.0708 20.1335 13.0908 19.2838 13.1294C20.1331 12.0406 21.0032 11.029 21.878 10.1113ZM14.1392 17.4055C13.7071 18.1339 13.2955 18.8679 12.9052 19.6032C12.3613 18.3493 11.8961 17.1163 11.5161 15.9257C12.7633 15.6544 14.0933 15.4325 15.4792 15.2643C15.0201 15.9605 14.5724 16.6749 14.1392 17.4053V17.4055ZM15.5191 28.255C14.0873 28.0997 12.7372 27.8892 11.4903 27.6253C11.8764 26.4135 12.3519 25.1542 12.9073 23.8733C13.2986 24.6081 13.7118 25.3423 14.1466 26.0723H14.1466C14.5895 26.816 15.0482 27.5445 15.5191 28.255ZM21.9297 33.4065C21.0446 32.478 20.1617 31.451 19.2995 30.3463C20.1365 30.3782 20.9899 30.3946 21.8571 30.3946C22.7482 30.3946 23.629 30.375 24.4959 30.3375C23.6447 31.4621 22.7852 32.4907 21.9297 33.4065ZM30.843 23.808C31.4273 25.1027 31.9198 26.3555 32.3109 27.5467C31.0434 27.8278 29.675 28.0542 28.2331 28.2224C28.6869 27.5233 29.1349 26.8019 29.575 26.0599C30.0204 25.3091 30.4432 24.5572 30.843 23.808ZM27.9574 25.1528C27.2741 26.3047 26.5726 27.4044 25.8604 28.4424C24.5632 28.5325 23.223 28.579 21.8571 28.579C20.4968 28.579 19.1735 28.5379 17.8993 28.4575C17.1584 27.4059 16.4416 26.303 15.7626 25.1627H15.7628C15.0856 24.0256 14.4623 22.8788 13.8976 21.7385C14.4622 20.5955 15.0838 19.4474 15.7571 18.3123L15.7569 18.3125C16.432 17.1744 17.1425 16.0769 17.8766 15.0318C19.1766 14.9363 20.5098 14.8864 21.8571 14.8864H21.8571C23.2105 14.8864 24.5454 14.9367 25.845 15.033C26.5679 16.0704 27.2736 17.1644 27.9513 18.3027C28.6367 19.4538 29.2664 20.5942 29.8358 21.7127C29.2681 22.8504 28.6398 24.0023 27.9574 25.1528ZM31.8098 4.87832C33.2736 5.69904 33.8429 9.009 32.9232 13.3494C32.8645 13.6263 32.7984 13.9084 32.7267 14.1943C30.9131 13.7875 28.9437 13.4847 26.8818 13.2967C25.6806 11.6337 24.4359 10.1218 23.1865 8.81292C23.5224 8.49875 23.8578 8.19918 24.1919 7.91647C27.4191 5.18591 30.4355 4.10783 31.8098 4.87832ZM21.8571 17.8998C24.013 17.8998 25.7607 19.5989 25.7607 21.6949C25.7607 23.7908 24.013 25.49 21.8571 25.49C19.7013 25.49 17.9536 23.7908 17.9536 21.6949C17.9536 19.5989 19.7013 17.8998 21.8571 17.8998Z" fill="#00D8FF"/>
</g>
<defs>
<clipPath id="clip0_150_231">
<rect width="43.7143" height="42.5" fill="white" transform="translate(0 0.5)"/>
</clipPath>
</defs>
</svg>
