<svg width="44" height="43" viewBox="0 0 44 43" fill="none" xmlns="http://www.w3.org/2000/svg">
<path d="M29.7625 28.6292C31.2748 28.4795 32.4222 27.2334 32.37 25.7378C32.318 24.2424 31.0141 23.046 29.4495 23.046H29.3453C27.7284 23.0959 26.4769 24.3919 26.5291 25.9372C26.5813 26.685 26.8941 27.333 27.3635 27.7816C25.5903 31.1216 22.8785 33.5642 18.8107 35.608C16.0466 37.0038 13.1784 37.5023 10.3101 37.1534C7.96321 36.8543 6.13791 35.8574 4.99041 34.2122C3.32167 31.7696 3.16526 29.1275 4.57338 26.4856C5.56432 24.5913 7.12868 23.1955 8.11962 22.4976C7.91103 21.8496 7.59806 20.7529 7.44165 19.9554C-0.120354 25.1896 0.661989 32.2681 2.95667 35.608C4.6776 38.1006 8.17181 39.6458 12.031 39.6458C13.074 39.6458 14.1169 39.5461 15.1601 39.297C21.8355 38.0507 26.8942 34.2621 29.7625 28.6292ZM38.9412 22.4479C34.9776 18.0112 29.1367 15.5687 22.4613 15.5687H21.6269C21.1575 14.6714 20.1666 14.0731 19.0715 14.0731H18.9671C17.3505 14.123 16.099 15.419 16.151 16.9645C16.2032 18.4599 17.5069 19.6563 19.0715 19.6563H19.1757C20.323 19.6064 21.3139 18.9085 21.7311 17.9614H22.6699C26.6335 17.9614 30.3883 19.058 33.7783 21.2016C36.3858 22.8466 38.2633 24.9902 39.3062 27.5822C40.1928 29.6759 40.1406 31.7197 39.2018 33.4646C37.7417 36.1065 35.2906 37.5522 32.0572 37.5522C29.9711 37.5522 27.9894 36.9539 26.9463 36.5052C26.3727 37.0038 25.3296 37.8013 24.5994 38.2999C26.8421 39.2968 29.1367 39.8452 31.327 39.8452C36.3336 39.8452 40.0364 37.2031 41.4445 34.5612C42.9568 31.6699 42.8525 26.685 38.9412 22.4479ZM12.4482 29.4764C12.5004 30.972 13.8041 32.1682 15.3687 32.1682H15.473C17.0897 32.1185 18.3413 30.8223 18.2891 29.277C18.2371 27.7815 16.9332 26.5852 15.3687 26.5852H15.2644C15.1601 26.5852 15.0035 26.5852 14.8994 26.6349C12.7612 23.2452 11.8746 19.5565 12.1876 15.5685C12.396 12.5776 13.4391 9.98538 15.2644 7.84181C16.7768 5.99739 19.6972 5.10012 21.6791 5.05039C27.207 4.95062 29.5538 11.5307 29.7103 14.1728C30.3883 14.3222 31.5356 14.6713 32.318 14.9205C31.692 6.84508 26.4769 2.65771 21.4705 2.65771C16.7768 2.65771 12.4482 5.89793 10.7271 10.6834C8.32821 17.0641 9.89273 23.1955 12.8132 28.0309C12.5526 28.3798 12.396 28.9282 12.4482 29.4766V29.4764Z" fill="#764ABC"/>
</svg>
