<svg width="43" height="43" viewBox="0 0 43 43" fill="none" xmlns="http://www.w3.org/2000/svg">
<g clip-path="url(#clip0_150_234)">
<path fill-rule="evenodd" clip-rule="evenodd" d="M14.2979 25.8577C13.6393 26.2696 12.6469 26.9369 11.8791 27.6627C10.6187 28.853 10.3549 30.5041 11.0198 30.8898C11.6349 31.2464 13.0708 30.8221 14.0985 29.7012C15.177 28.5244 15.6218 27.0325 15.1624 25.3389C15.1085 25.3711 15.0555 25.4034 15.0035 25.4334L15.0046 25.4357L14.935 25.4752C14.6668 25.6353 14.4477 25.7673 14.2979 25.8577ZM32.8079 25.3234C32.4348 26.1342 32.4161 26.3951 32.5295 26.4763C33.0708 26.2818 33.9665 25.8131 33.9736 24.5571C33.9747 24.369 33.9332 24.1671 33.8666 23.9562C33.2879 24.4687 32.9543 25.0053 32.8079 25.3234ZM38.6169 22.8718C37.1706 22.7033 36.0421 22.9061 35.1663 23.271C35.3285 23.6931 35.4531 24.1328 35.4707 24.5758C35.5113 25.5479 34.8422 26.2674 34.1448 26.781C33.7376 27.0805 33.3043 27.28 32.9405 27.4006C32.6497 27.5233 32.2631 27.65 31.9887 27.5941C31.3839 27.4711 31.0619 26.9338 31.4734 25.7486C31.6957 25.1072 32.3368 24.1308 33.3717 23.2899C33.1358 22.8043 32.8729 22.3095 32.7389 21.8549C32.4749 20.9588 32.3951 20.4172 32.3951 20.4172C32.3951 20.4172 31.5421 22.1857 30.4416 23.794C30.3782 23.8875 30.3148 23.9791 30.2514 24.0705C30.4676 24.5728 30.6378 25.104 30.6609 25.6396C30.7014 26.6116 30.2806 27.3466 29.5822 27.8591C29.2042 28.1379 28.8009 28.3304 28.4548 28.4529C28.2336 28.5495 27.7835 28.7084 27.1436 28.7512C26.7935 28.7752 26.4568 28.7535 26.2689 28.611C26.0101 28.4155 25.9789 28.1743 26.1129 27.8447C26.2262 27.5649 27.074 26.5971 27.7848 25.7498C27.9811 25.5158 28.1681 25.2767 28.3354 25.0553L28.3313 25.0458C28.3313 25.0459 28.4601 24.8796 28.669 24.5895C28.4092 24.0301 28.0799 23.4478 27.925 22.9197C27.661 22.0236 27.5811 21.4818 27.5811 21.4818C27.5811 21.4818 26.7165 23.6985 25.8157 25.468C25.1186 26.8385 24.653 27.669 24.4433 28.0329L24.4411 28.0475C24.4411 28.0475 24.4098 28.1006 24.3559 28.1838L24.3155 28.2512L24.3143 28.245C24.0805 28.5903 23.5558 29.267 23.0342 29.267C21.6024 29.267 22.1281 26.359 22.1281 26.359C22.1281 26.359 21.7095 27.4361 21.2377 28.3604C20.8534 29.1141 20.5032 29.7527 19.7374 29.7527C19.5172 29.7527 19.168 29.7463 18.878 29.4707C18.2204 28.8459 17.7175 27.2592 17.8161 26.0304C17.9002 24.9856 18.0613 24.2619 18.2815 23.658C17.8888 23.872 17.4348 24.1259 16.9724 24.3973L16.2616 24.8161L16.2845 24.8578C16.8725 25.9953 17.0295 28.4873 15.7473 30.4003C14.4652 32.3143 12.0785 33.4788 9.75313 32.8322C9.00281 32.6231 7.86931 31.0709 8.84699 28.9073C9.70936 26.9994 13.1559 25.1956 14.0642 24.7455L14.3135 24.6082C12.5026 23.0237 7.98051 20.8862 7.34676 17.6028C7.16799 16.6786 7.60131 14.4682 10.3152 11.9273C12.5979 9.79074 15.7733 8.15424 18.7066 7.1114C23.6347 5.3596 28.8415 6.39295 29.6426 9.53492C30.4302 12.6249 27.7495 16.321 24.3165 17.6497C21.2513 18.8359 18.717 18.6478 17.6758 18.3058C16.4923 17.917 15.7983 17.1361 15.629 16.6953C15.5624 16.5227 15.448 16.2328 15.629 16.1329C15.74 16.0716 15.7847 16.0862 16.0818 16.4147C16.3646 16.7266 17.5012 17.5636 19.6604 17.3212C25.3264 16.6861 28.7395 12.2808 27.661 9.9103C26.9057 8.25099 22.5386 7.50236 17.0825 10.2232C10.4222 13.5439 10.0607 16.2815 10.0036 17.3212C9.84762 20.1813 13.531 21.6858 15.524 23.8128L15.6008 23.8971C15.9738 23.6913 16.3677 23.474 16.7541 23.2619C17.759 22.7098 18.7066 22.1919 19.1482 21.9507C19.8496 20.9311 21.2729 19.8059 22.3006 19.8059C23.9434 19.8059 23.3792 22.1671 23.3792 22.1671C23.3792 22.1671 23.4125 22.059 23.4571 22.0581C23.5038 22.0568 23.6847 21.747 24.1918 21.932C24.7134 22.1234 24.5948 22.4894 24.5981 22.5268C24.6043 22.5994 23.9819 24.6986 23.7232 26.045C23.5994 26.6875 23.6711 27.1555 23.7077 27.1555C23.7585 27.1555 23.8625 26.9922 23.9591 26.8166L23.957 26.8113C23.957 26.8113 24.0296 26.6783 24.1513 26.4392L24.1752 26.3892L24.1762 26.3915C24.3197 26.1107 24.5212 25.6979 24.7539 25.1864C25.21 24.1811 26.9503 20.2999 27.0979 19.8705C27.2454 19.4412 27.3223 18.9972 27.3951 18.8069C27.4668 18.6166 28.082 18.4731 28.8009 18.4784C29.5199 18.4836 29.5929 18.7903 29.5978 18.8538C29.6031 18.9171 29.256 19.7687 29.176 20.3706C29.0971 20.9726 29.173 21.2729 29.2384 21.7783C29.2811 22.1088 29.4877 22.5279 29.7321 23.003C30.476 21.7865 31.7851 19.4597 31.9108 18.8079C31.997 18.3619 32.1352 17.9346 32.208 17.7442C32.2807 17.554 32.8949 17.4106 33.6138 17.4157C34.3328 17.4209 34.4055 17.7276 34.4107 17.7911C34.4159 17.8545 34.0678 18.706 33.9889 19.308C33.9098 19.9089 33.9859 20.2105 34.0512 20.7158C34.1074 21.1482 34.4419 21.7294 34.7735 22.3905C35.6783 21.9444 36.7434 21.6451 37.9904 21.6389C38.5067 21.6359 39.1063 21.6878 39.416 21.7844V11.8377C39.416 11.136 39.0563 10.4894 38.4486 10.1391L22.2229 0.760881C21.6162 0.410435 20.8732 0.410435 20.2664 0.760881L4.08537 10.1345C3.47854 10.485 3.1543 11.1328 3.1543 11.8334V30.5978C3.1543 31.2984 3.48052 31.9462 4.08636 32.2965L20.2934 41.6775C20.9001 42.0291 21.6359 42.0291 22.2426 41.6775L38.457 32.2965C39.0637 31.945 39.4171 31.2983 39.4171 30.5978V23.0143C39.2113 22.9537 38.91 22.906 38.6169 22.8718ZM21.1609 21.8892C20.8129 22.279 20.2196 23.2843 19.9421 24.1257C19.3904 25.7963 19.6294 27.4942 20.02 27.5962C20.4762 27.7156 21.2244 25.4824 21.5826 24.609C21.8071 24.0621 22.68 21.6346 22.4888 21.3102C22.3395 21.0565 21.721 21.2614 21.1609 21.8892ZM27.4735 27.5201C27.4735 27.5201 27.3634 27.6243 27.411 27.6533C27.4755 27.6918 27.6147 27.6418 27.7664 27.5628C28.1956 27.2926 29.1587 26.6188 29.1608 25.6217C29.1608 25.5927 29.1597 25.5646 29.1577 25.5345C28.9343 25.8277 28.7285 26.0886 28.5509 26.31C28.2475 26.6874 27.4735 27.5201 27.4735 27.5201Z" fill="#CC6699"/>
</g>
<defs>
<clipPath id="clip0_150_234">
<rect width="36.2744" height="41.5039" fill="white" transform="translate(3.1543 0.498047)"/>
</clipPath>
</defs>
</svg>
