<svg width="25" height="24" viewBox="0 0 25 24" fill="none" xmlns="http://www.w3.org/2000/svg">
<g clip-path="url(#clip0_157_349)">
<path d="M4.42871 15C4.98099 15 5.42871 15.4477 5.42871 16V19H8.42871C8.98099 19 9.42871 19.4477 9.42871 20C9.42871 20.5523 8.98099 21 8.42871 21H5.42871C4.32414 21 3.42871 20.1046 3.42871 19V16C3.42871 15.4477 3.87643 15 4.42871 15ZM20.4287 15C20.9416 15 21.3642 15.386 21.422 15.8834L21.4287 16V19C21.4287 20.0544 20.6129 20.9182 19.578 20.9945L19.4287 21H16.4287C15.8764 21 15.4287 20.5523 15.4287 20C15.4287 19.4872 15.8147 19.0645 16.3121 19.0067L16.4287 19H19.4287V16C19.4287 15.4477 19.8764 15 20.4287 15ZM19.4287 3C20.4831 3 21.3469 3.81588 21.4232 4.85074L21.4287 5V8C21.4287 8.55228 20.981 9 20.4287 9C19.9159 9 19.4932 8.61396 19.4354 8.11662L19.4287 8V5H16.4287C15.8764 5 15.4287 4.55228 15.4287 4C15.4287 3.48717 15.8147 3.06449 16.3121 3.00673L16.4287 3H19.4287ZM8.42871 3C8.98099 3 9.42871 3.44772 9.42871 4C9.42871 4.51283 9.04267 4.93551 8.54533 4.99327L8.42871 5H5.42871V8C5.42871 8.55228 4.98099 9 4.42871 9C3.91588 9 3.4932 8.61396 3.43544 8.11662L3.42871 8V5C3.42871 3.94564 4.24459 3.08183 5.27945 3.00549L5.42871 3H8.42871Z" fill="white"/>
<g clip-path="url(#clip1_157_349)">
<path d="M10.2216 12.7929C10.6121 12.4024 11.2453 12.4024 11.6358 12.7929C11.9963 13.1534 12.024 13.7206 11.719 14.1129L11.6358 14.2071L6.84292 19H9.42871C9.981 19 10.4287 19.4477 10.4287 20C10.4287 20.5128 10.0427 20.9355 9.54533 20.9933L9.42871 21H4.42871C3.91588 21 3.4932 20.614 3.43544 20.1166L3.42871 20V15C3.42871 14.4477 3.87643 14 4.42871 14C4.94154 14 5.36422 14.386 5.42198 14.8834L5.42871 15V17.5858L10.2216 12.7929ZM20.4287 3C20.9416 3 21.3642 3.38604 21.422 3.88338L21.4287 4V9C21.4287 9.55228 20.981 10 20.4287 10C19.9159 10 19.4932 9.61396 19.4354 9.11662L19.4287 9V6.41421L14.6358 11.2071C14.2453 11.5976 13.6121 11.5976 13.2216 11.2071C12.8611 10.8466 12.8334 10.2794 13.1384 9.88709L13.2216 9.79289L18.0145 5H15.4287C14.8764 5 14.4287 4.55229 14.4287 4C14.4287 3.48717 14.8147 3.06449 15.3121 3.00673L15.4287 3H20.4287Z" fill="white"/>
</g>
</g>
<defs>
<clipPath id="clip0_157_349">
<rect width="24" height="24" fill="white" transform="translate(0.428711)"/>
</clipPath>
<clipPath id="clip1_157_349">
<rect width="24" height="24" fill="white" transform="translate(0.428711)"/>
</clipPath>
</defs>
</svg>
