<svg width="44" height="43" viewBox="0 0 44 43" fill="none" xmlns="http://www.w3.org/2000/svg">
<path d="M3.41518 0H40.2991C42.1853 0 43.7143 1.48655 43.7143 3.32031V39.1797C43.7143 41.0134 42.1853 42.5 40.2991 42.5H3.41518C1.52903 42.5 0 41.0134 0 39.1797V3.32031C0 1.48655 1.52903 0 3.41518 0Z" fill="#3178C6"/>
<path d="M25.7022 33.282V37.8673C26.4692 38.2495 27.3764 38.536 28.4237 38.7271C29.471 38.9182 30.5748 39.0137 31.7352 39.0137C32.866 39.0137 33.9404 38.9086 34.9581 38.6984C35.9759 38.4882 36.8684 38.1419 37.6353 37.6596C38.4023 37.1772 39.0096 36.5467 39.4571 35.7681C39.9045 34.9896 40.1282 34.0272 40.1282 32.8809C40.1282 32.0498 40.0003 31.3213 39.7447 30.6956C39.4891 30.0699 39.1202 29.5134 38.6383 29.0263C38.1566 28.5391 37.5788 28.1021 36.9053 27.7151C36.2317 27.3283 35.472 26.9629 34.6262 26.6191C34.0067 26.3706 33.4512 26.1295 32.9594 25.8954C32.4678 25.6614 32.0498 25.4226 31.7057 25.1789C31.3614 24.9354 31.0959 24.6774 30.9091 24.4051C30.7223 24.1329 30.6289 23.8249 30.6289 23.4809C30.6289 23.1657 30.7124 22.8816 30.8796 22.6284C31.0467 22.3753 31.2829 22.1579 31.5877 21.9765C31.8925 21.7949 32.2661 21.6541 32.7087 21.5536C33.1512 21.4534 33.643 21.4032 34.1837 21.4032C34.5772 21.4032 34.9926 21.432 35.4301 21.4892C35.8678 21.5465 36.3078 21.6348 36.7504 21.7544C37.1929 21.8737 37.623 22.0241 38.041 22.2058C38.4589 22.3872 38.8449 22.5974 39.1989 22.8361V18.5517C38.4811 18.2843 37.6968 18.0861 36.8462 17.9571C35.9957 17.8281 35.0196 17.7637 33.9182 17.7637C32.7972 17.7637 31.7352 17.8807 30.7322 18.1148C29.7292 18.3487 28.8465 18.7141 28.0844 19.2108C27.3223 19.7077 26.72 20.3406 26.2774 21.1096C25.835 21.8785 25.6137 22.7979 25.6137 23.8679C25.6137 25.2339 26.0192 26.3993 26.8307 27.3642C27.642 28.3289 28.8735 29.1457 30.5256 29.8144C31.1746 30.0724 31.7795 30.3254 32.3399 30.5739C32.9005 30.8223 33.3848 31.0801 33.7929 31.3476C34.201 31.615 34.523 31.9064 34.759 32.2216C34.995 32.5369 35.113 32.8952 35.113 33.2964C35.113 33.5924 35.0392 33.8672 34.8917 34.1204C34.7443 34.3734 34.5205 34.5932 34.2206 34.7794C33.9208 34.9657 33.547 35.1113 33.0996 35.2164C32.6522 35.3215 32.1285 35.3741 31.5286 35.3741C30.5059 35.3741 29.4932 35.1998 28.4901 34.851C27.4869 34.5024 26.5577 33.9794 25.7022 33.282ZM17.8411 21.8712H23.9061V18.0957H7.00098V21.8712H13.0364V38.6816H17.8411V21.8712Z" fill="white"/>
</svg>
